<svg xmlns="http://www.w3.org/2000/svg"  viewBox="0 0 48 48" width="48px" height="48px"><path fill="#455a64" d="M41.5,22.5c0,0.17,0,0.34-0.01,0.51c-0.05,1.97-0.44,3.86-1.09,5.62c-0.38,1.03-0.86,2.01-1.42,2.93	c-0.35,0.58-0.74,1.14-1.16,1.67C34.62,37.35,29.62,40,24,40c-4.9,0-9.34-2.01-12.51-5.26c-0.48-0.48-0.92-0.99-1.34-1.53	c-1.42-1.85-2.49-3.99-3.1-6.31c-0.17-0.69-0.31-1.39-0.4-2.11c-0.1-0.75-0.15-1.51-0.15-2.29c0-1.88,0.3-3.69,0.85-5.39	c0.24-0.75,0.53-1.47,0.87-2.16c0.45-0.96,0.99-1.86,1.6-2.71c0.39-0.54,0.82-1.06,1.27-1.55c1.77-1.94,3.97-3.47,6.44-4.45	c0.76-0.31,1.55-0.56,2.36-0.75C21.21,5.17,22.58,5,24,5c0.68,0,1.35,0.04,2,0.12c1.97,0.22,3.84,0.77,5.55,1.59	c0.61,0.29,1.2,0.61,1.76,0.97c1.98,1.25,3.7,2.88,5.03,4.8c0.41,0.58,0.78,1.18,1.11,1.8c1.08,2.03,1.78,4.29,1.98,6.7	C41.48,21.48,41.5,21.99,41.5,22.5z"/><path fill="#607d8b" d="M39.44,22.5v0.14c-0.02,1.85-0.36,3.63-0.97,5.27c-0.28,0.74-0.61,1.46-1,2.14	c-0.33,0.6-0.7,1.18-1.11,1.72c-2.82,3.75-7.31,6.17-12.36,6.17c-4.42,0-8.4-1.85-11.21-4.83c-0.47-0.49-0.91-1.02-1.3-1.57	c-1.24-1.71-2.13-3.67-2.59-5.8c-0.15-0.71-0.25-1.43-0.3-2.17c-0.03-0.35-0.04-0.71-0.04-1.07c0-1.19,0.13-2.34,0.39-3.45	c0.18-0.78,0.42-1.55,0.71-2.28c0.48-1.19,1.1-2.31,1.84-3.33c0.39-0.54,0.82-1.06,1.28-1.54c1.18-1.25,2.56-2.31,4.11-3.11	c0.72-0.37,1.47-0.69,2.25-0.95C20.67,7.33,22.3,7.06,24,7.06c0.68,0,1.35,0.04,2,0.13c1.52,0.2,2.98,0.62,4.33,1.23	c0.62,0.27,1.21,0.59,1.78,0.95c1.99,1.22,3.67,2.88,4.91,4.85c0.43,0.66,0.8,1.35,1.12,2.07c0.59,1.34,1,2.79,1.18,4.3	C39.4,21.22,39.44,21.85,39.44,22.5z"/><rect width="4" height="10" x="22" y="25" fill="#455a64"/><path fill="#fb8c00" d="M37,39H11.077C10.485,39,10,39.45,10,40v3h28v-3C38,39.45,37.592,39,37,39z M35,35H13	c-0.592,0-1,0.45-1,1v3h24v-3C36,35.45,35.592,35,35,35z"/><path fill="#ef6c00" d="M12,37h24v2H12V37z M10,41h28v2H10V41z"/><path fill="#f8bbd0" d="M30.65,12.67c0.46,0.7,0.63,1.53,0.47,2.35c-0.17,0.82-0.64,1.53-1.34,1.99l-4.23,2.82	C25.38,19.95,25.19,20,25,20c-0.32,0-0.64-0.16-0.83-0.45c-0.31-0.46-0.18-1.08,0.28-1.38l4.22-2.82c0.25-0.17,0.43-0.42,0.48-0.72	c0.06-0.3,0-0.6-0.16-0.85c-0.18-0.27-0.32-0.57-0.41-0.87c-0.21-0.76-0.14-1.59,0.23-2.3c0.06-0.13,0.14-0.26,0.23-0.39l2.51-3.51	c0.61,0.29,1.2,0.61,1.76,0.97l-2.64,3.7C30.4,11.76,30.39,12.28,30.65,12.67z"/><path fill="#f8bbd0" d="M21.45,19.89C21.3,19.97,21.15,20,21,20c-0.37,0-0.72-0.2-0.89-0.55l-0.42-0.83	c-0.47-0.93-1.14-1.71-1.95-2.29c-0.05-0.02-0.1-0.06-0.15-0.1c-0.67-0.46-1.44-0.78-2.26-0.94c-1.15-0.24-2.22-0.7-3.18-1.38	l-2.33-1.67c0.39-0.54,0.82-1.06,1.27-1.55l2.23,1.59c0.72,0.52,1.53,0.87,2.4,1.04c0.38,0.08,0.75,0.18,1.1,0.3	c0.83,0.29,1.6,0.7,2.28,1.22c0.99,0.76,1.8,1.73,2.38,2.88l0.41,0.83C22.14,19.05,21.94,19.65,21.45,19.89z"/><path fill="#f8bbd0" d="M19.41,6.94c-0.85,2.56-0.96,5.29-0.31,7.9c0.02,0.12,0.05,0.23,0.08,0.35	c0.15,0.53-0.17,1.08-0.7,1.23c-0.09,0.02-0.18,0.03-0.27,0.03c-0.17,0-0.32-0.04-0.47-0.12c-0.05-0.02-0.1-0.06-0.15-0.1	c-0.16-0.13-0.28-0.3-0.34-0.52c-0.19-0.69-0.34-1.39-0.43-2.09c-0.33-2.45-0.1-4.94,0.69-7.31l0.02-0.07	c0.76-0.31,1.55-0.56,2.36-0.75L19.41,6.94z"/><path fill="#f8bbd0" d="M20.32,23.95l-1.2,0.4c-1.42,0.47-2.93,0.36-4.27-0.31c-1.11-0.55-2.45-0.48-3.5,0.17l-4.3,2.69	c-0.17-0.69-0.31-1.39-0.4-2.11l3.64-2.27c0.43-0.27,0.9-0.48,1.38-0.62c1.28-0.38,2.68-0.29,3.91,0.29c0.01,0,0.02,0,0.02,0.01	c0.05,0.01,0.1,0.04,0.15,0.06c0.86,0.43,1.83,0.49,2.74,0.19l1.19-0.4c0.53-0.17,1.09,0.11,1.27,0.63	C21.12,23.21,20.84,23.77,20.32,23.95z"/><path fill="#f8bbd0" d="M15.95,23.32C15.81,23.74,15.42,24,15,24c-0.1,0-0.21-0.02-0.32-0.05c-0.9-0.3-1.95-1.08-3.01-2.05	c-1.62-1.49-3.25-3.44-4.32-4.79c0.24-0.75,0.53-1.47,0.87-2.16c1.99,2.65,5.37,6.52,7.1,7.1c0.1,0.03,0.19,0.08,0.26,0.14	c0.01,0,0.02,0,0.02,0.01C15.93,22.45,16.09,22.9,15.95,23.32z"/><path fill="#f8bbd0" d="M23,25c0,0.22-0.07,0.44-0.22,0.62L22,26.6l-1.97,2.46C19.05,30.29,17.58,31,16,31	c-0.97,0-1.87,0.43-2.47,1.19l-2.04,2.55c-0.48-0.48-0.92-0.99-1.34-1.53l1.82-2.27C12.95,29.71,14.42,29,16,29	c0.97,0,1.87-0.43,2.47-1.19l2.75-3.43c0.34-0.44,0.97-0.5,1.4-0.16C22.87,24.41,23,24.7,23,25z"/><path fill="#f8bbd0" d="M41.5,22.5c0,0.17,0,0.34-0.01,0.51l-3.86-0.7c-0.88-0.16-1.79,0.06-2.5,0.59	c-1.84,1.39-4.42,1.39-6.26,0.01L27.4,21.8c-0.44-0.33-0.53-0.96-0.2-1.4s0.96-0.53,1.4-0.2l1.47,1.11c1.14,0.85,2.72,0.85,3.86,0	c0.34-0.25,0.7-0.46,1.08-0.62c0.64-0.27,1.33-0.42,2.02-0.42c0.32-0.01,0.64,0.02,0.96,0.08l3.44,0.63	C41.48,21.48,41.5,21.99,41.5,22.5z"/><path fill="#f8bbd0" d="M39.45,14.28l-0.17,0.22c-1.32,1.65-2.1,3.68-2.25,5.77C37.01,20.51,37,20.76,37,21	c0,0.55-0.45,1-1,1s-1-0.45-1-1c0-0.1,0-0.21,0.01-0.31c0.06-2.7,1.02-5.33,2.71-7.44l0.62-0.77	C38.75,13.06,39.12,13.66,39.45,14.28z"/><path fill="#f8bbd0" d="M38.98,31.56c-0.35,0.58-0.74,1.14-1.16,1.67l-1.92-1.92C35.05,30.46,33.93,30,32.73,30	c-2.02,0-3.96-0.97-5.17-2.59L26.2,25.6C26.07,25.42,26,25.21,26,25c0-0.3,0.14-0.6,0.4-0.8c0.44-0.33,1.07-0.24,1.4,0.2l1.36,1.81	C30,27.33,31.34,28,32.73,28c1.73,0,3.36,0.67,4.58,1.89L38.98,31.56z"/><path fill="#f8bbd0" d="M29.8,12.6C29.6,12.86,29.3,13,29,13c-0.14,0-0.29-0.03-0.42-0.09c-0.06-0.03-0.12-0.07-0.18-0.11	l-3.15-2.36C24.47,9.85,24,8.92,24,7.93V5c0.68,0,1.35,0.04,2,0.12v2.81c0,0.36,0.17,0.7,0.45,0.91l2.36,1.77l0.79,0.59	C30.04,11.53,30.13,12.16,29.8,12.6z"/><path fill="#f8bbd0" d="M30.65,12.67c0.46,0.7,0.63,1.53,0.47,2.35c-0.17,0.82-0.64,1.53-1.34,1.99l-4.23,2.82	C25.38,19.95,25.19,20,25,20c-0.32,0-0.64-0.16-0.83-0.45c-0.31-0.46-0.18-1.08,0.28-1.38l4.22-2.82c0.25-0.17,0.43-0.42,0.48-0.72	c0.06-0.3,0-0.6-0.16-0.85c-0.18-0.27-0.32-0.57-0.41-0.87c-0.21-0.76-0.14-1.59,0.23-2.3c0.06-0.13,0.14-0.26,0.23-0.39l1.29-1.8	c0.62,0.27,1.21,0.59,1.78,0.95l-1.44,2.01C30.4,11.76,30.39,12.28,30.65,12.67z"/><path fill="#f8bbd0" d="M21.45,19.89C21.3,19.97,21.15,20,21,20c-0.37,0-0.72-0.2-0.89-0.55l-0.42-0.83	c-0.47-0.93-1.14-1.71-1.95-2.29c-0.05-0.02-0.1-0.06-0.15-0.1c-0.67-0.46-1.44-0.78-2.26-0.94c-1.15-0.24-2.22-0.7-3.18-1.38	l-0.65-0.47c0.39-0.54,0.82-1.06,1.28-1.54l0.54,0.38c0.72,0.52,1.53,0.87,2.4,1.04c0.38,0.08,0.75,0.18,1.1,0.3	c0.83,0.29,1.6,0.7,2.28,1.22c0.99,0.76,1.8,1.73,2.38,2.88l0.41,0.83C22.14,19.05,21.94,19.65,21.45,19.89z"/><path fill="#f8bbd0" d="M18.48,16.42c-0.09,0.02-0.18,0.03-0.27,0.03c-0.17,0-0.32-0.04-0.47-0.12	c-0.05-0.02-0.1-0.06-0.15-0.1c-0.16-0.13-0.28-0.3-0.34-0.52c-0.19-0.69-0.34-1.39-0.43-2.09c-0.22-1.61-0.19-3.23,0.07-4.83	c0.72-0.37,1.47-0.69,2.25-0.95c-0.6,2.29-0.61,4.69-0.04,7c0.02,0.12,0.05,0.23,0.08,0.35C19.33,15.72,19.01,16.27,18.48,16.42z"/><path fill="#f8bbd0" d="M20.32,23.95l-1.2,0.4c-1.42,0.47-2.93,0.36-4.27-0.31c-1.11-0.55-2.45-0.48-3.5,0.17L8.9,25.74	c-0.15-0.71-0.25-1.43-0.3-2.17l1.69-1.05c0.43-0.27,0.9-0.48,1.38-0.62c1.28-0.38,2.68-0.29,3.91,0.29c0.01,0,0.02,0,0.02,0.01	c0.05,0.01,0.1,0.04,0.15,0.06c0.86,0.43,1.83,0.49,2.74,0.19l1.19-0.4c0.53-0.17,1.09,0.11,1.27,0.63	C21.12,23.21,20.84,23.77,20.32,23.95z"/><path fill="#f8bbd0" d="M15.95,23.32C15.81,23.74,15.42,24,15,24c-0.1,0-0.21-0.02-0.32-0.05c-0.9-0.3-1.95-1.08-3.01-2.05	c-0.94-0.87-1.88-1.89-2.72-2.85c0.18-0.78,0.42-1.55,0.71-2.28c1.92,2.33,4.3,4.82,5.66,5.28c0.1,0.03,0.19,0.08,0.26,0.14	c0.01,0,0.02,0,0.02,0.01C15.93,22.45,16.09,22.9,15.95,23.32z"/><path fill="#f8bbd0" d="M23,25c0,0.22-0.07,0.44-0.22,0.62L22,26.6l-1.97,2.46C19.05,30.29,17.58,31,16,31	c-0.97,0-1.87,0.43-2.47,1.19l-0.74,0.92c-0.47-0.49-0.91-1.02-1.3-1.57l0.48-0.6C12.95,29.71,14.42,29,16,29	c0.97,0,1.87-0.43,2.47-1.19l2.75-3.43c0.34-0.44,0.97-0.5,1.4-0.16C22.87,24.41,23,24.7,23,25z"/><path fill="#f8bbd0" d="M39.44,22.5v0.14l-1.81-0.33c-0.88-0.16-1.79,0.06-2.5,0.59c-1.84,1.39-4.42,1.39-6.26,0.01	L27.4,21.8c-0.44-0.33-0.53-0.96-0.2-1.4s0.96-0.53,1.4-0.2l1.47,1.11c1.14,0.85,2.72,0.85,3.86,0c0.34-0.25,0.7-0.46,1.08-0.62	c0.64-0.27,1.33-0.42,2.02-0.42c0.32-0.01,0.64,0.02,0.96,0.08l1.33,0.24C39.4,21.22,39.44,21.85,39.44,22.5z"/><path fill="#f8bbd0" d="M38.14,16.29c-0.63,1.24-1.01,2.6-1.11,3.98C37.01,20.51,37,20.76,37,21c0,0.55-0.45,1-1,1	s-1-0.45-1-1c0-0.1,0-0.21,0.01-0.31c0.05-2.3,0.76-4.55,2.01-6.47C37.45,14.88,37.82,15.57,38.14,16.29z"/><path fill="#f8bbd0" d="M37.47,30.05c-0.33,0.6-0.7,1.18-1.11,1.72l-0.46-0.46C35.05,30.46,33.93,30,32.73,30	c-2.02,0-3.96-0.97-5.17-2.59L26.2,25.6C26.07,25.42,26,25.21,26,25c0-0.3,0.14-0.6,0.4-0.8c0.44-0.33,1.07-0.24,1.4,0.2l1.36,1.81	C30,27.33,31.34,28,32.73,28c1.73,0,3.36,0.67,4.58,1.89L37.47,30.05z"/><path fill="#f8bbd0" d="M29.8,12.6C29.6,12.86,29.3,13,29,13c-0.14,0-0.29-0.03-0.42-0.09c-0.06-0.03-0.12-0.07-0.18-0.11	l-3.15-2.36C24.47,9.85,24,8.92,24,7.93V7.06c0.68,0,1.35,0.04,2,0.13v0.74c0,0.36,0.17,0.7,0.45,0.91l2.36,1.77l0.79,0.59	C30.04,11.53,30.13,12.16,29.8,12.6z"/><path fill="#f06292" d="M33.31,7.68l-1.2,1.69c-0.57-0.36-1.16-0.68-1.78-0.95l1.22-1.71C32.16,7,32.75,7.32,33.31,7.68z"/><path fill="#f06292" d="M12.78,11.9c-0.46,0.48-0.89,1-1.28,1.54l-1.68-1.2c0.39-0.54,0.82-1.06,1.27-1.55L12.78,11.9z"/><path fill="#f06292" d="M19.89,5.49l-0.48,1.45c-0.1,0.3-0.19,0.6-0.27,0.9c-0.78,0.26-1.53,0.58-2.25,0.95	c0.14-0.83,0.35-1.66,0.62-2.48l0.02-0.07C18.29,5.93,19.08,5.68,19.89,5.49z"/><path fill="#f06292" d="M8.9,25.74L7.05,26.9c-0.17-0.69-0.31-1.39-0.4-2.11l1.95-1.22C8.65,24.31,8.75,25.03,8.9,25.74z"/><path fill="#f06292" d="M9.66,16.77c-0.29,0.73-0.53,1.5-0.71,2.28c-0.6-0.7-1.15-1.37-1.6-1.94	c0.24-0.75,0.53-1.47,0.87-2.16C8.65,15.52,9.13,16.14,9.66,16.77z"/><path fill="#f06292" d="M12.79,33.11l-1.3,1.63c-0.48-0.48-0.92-0.99-1.34-1.53l1.34-1.67	C11.88,32.09,12.32,32.62,12.79,33.11z"/><path fill="#f06292" d="M41.5,22.5c0,0.17,0,0.34-0.01,0.51l-2.05-0.37V22.5c0-0.65-0.04-1.28-0.12-1.91l2.11,0.39	C41.48,21.48,41.5,21.99,41.5,22.5z"/><path fill="#f06292" d="M39.45,14.28l-0.17,0.22c-0.45,0.56-0.83,1.16-1.14,1.79c-0.32-0.72-0.69-1.41-1.12-2.07	c0.22-0.34,0.45-0.66,0.7-0.97l0.62-0.77C38.75,13.06,39.12,13.66,39.45,14.28z"/><path fill="#f06292" d="M38.98,31.56c-0.35,0.58-0.74,1.14-1.16,1.67l-1.46-1.46c0.41-0.54,0.78-1.12,1.11-1.72L38.98,31.56z"/><path fill="#f06292" d="M26,5.12v2.07c-0.65-0.09-1.32-0.13-2-0.13V5C24.68,5,25.35,5.04,26,5.12z"/><circle cx="24" cy="22" r="5" fill="#ff80ab"/><circle cx="24" cy="22" r="3" fill="#fce4ec"/></svg>