<?xml version="1.0" encoding="utf-8"?>
<!-- Generator: Adobe Illustrator 26.0.1, SVG Export Plug-In . SVG Version: 6.00 Build 0)  -->
<svg version="1.1" xmlns="http://www.w3.org/2000/svg" xmlns:xlink="http://www.w3.org/1999/xlink" x="0px" y="0px"
	 viewBox="0 0 4624 2295" style="enable-background:new 0 0 4624 2295;" xml:space="preserve">
<style type="text/css">
	.st0{fill:#8BFFB8;}
	.st1{fill:none;stroke:#000000;stroke-width:4;stroke-miterlimit:10;}
	.st2{fill:#6AF4FF;}
	.st3{fill:none;stroke:#000000;stroke-width:10;stroke-miterlimit:10;}
	.st4{fill:none;stroke:#000000;stroke-width:10;stroke-linecap:square;}
	.st5{fill:none;stroke:#000000;stroke-width:10;stroke-linecap:square;stroke-miterlimit:1.8102;}
	.st6{fill:none;stroke:#000000;stroke-width:10;}
	.st7{font-family:'MyriadPro-Regular';}
	.st8{font-size:93.5233px;}
</style>
<g id="Layer_1">
	<g>
		<g id="XMLID_00000170981427997949125640000007134009082209543324_">
			<g>
				<polygon class="st0" points="3619.5,-2593.5 3619.5,-2476.17 3306.83,-2476.17 2994.17,-2476.17 2681.5,-2476.17 
					2681.5,-2593.5 				"/>
			</g>
			<g>
				<polyline class="st1" points="2681.5,-2476.17 2681.5,-2593.5 3619.5,-2593.5 3619.5,-2476.17 				"/>
				<polygon class="st1" points="3619.5,-2476.17 3619.5,-2358.83 3619.5,-2241.5 3619.5,-2124.17 3619.5,-2006.83 3619.5,-1889.5 
					3306.83,-1889.5 2994.17,-1889.5 2681.5,-1889.5 2681.5,-2006.83 2681.5,-2124.17 2681.5,-2241.5 2681.5,-2358.83 
					2681.5,-2476.17 2994.17,-2476.17 3306.83,-2476.17 				"/>
				<polyline class="st1" points="2681.5,-2006.83 2994.17,-2006.83 3306.83,-2006.83 3619.5,-2006.83 				"/>
				<polyline class="st1" points="2681.5,-2124.17 2994.17,-2124.17 3306.83,-2124.17 3619.5,-2124.17 				"/>
				<polyline class="st1" points="2681.5,-2241.5 2994.17,-2241.5 3306.83,-2241.5 3619.5,-2241.5 				"/>
				<polyline class="st1" points="2681.5,-2358.83 2994.17,-2358.83 3306.83,-2358.83 3619.5,-2358.83 				"/>
				<polyline class="st1" points="3306.83,-1889.5 3306.83,-2006.83 3306.83,-2124.17 3306.83,-2241.5 3306.83,-2358.83 
					3306.83,-2476.17 				"/>
				<polyline class="st1" points="2994.17,-1889.5 2994.17,-2006.83 2994.17,-2124.17 2994.17,-2241.5 2994.17,-2358.83 
					2994.17,-2476.17 				"/>
			</g>
		</g>
	</g>
	<text transform="matrix(0.9756 0 0 1 2936.0781 -2501.2734)" class="st7 st8">Truth Table</text>
	<text transform="matrix(0.9756 0 0 1 2801.8853 -2386.8481)" class="st7 st8">A</text>
	<text transform="matrix(0.9756 0 0 1 3122.1296 -2386.8481)" class="st7 st8">B</text>
	<text transform="matrix(0.9756 0 0 1 7495.1299 -1632.848)" class="st7 st8">X</text>
	<text transform="matrix(0.9756 0 0 1 2804.1296 -2266.8481)" class="st7 st8">0</text>
	<text transform="matrix(0.9756 0 0 1 2804.1296 -2148.8481)" class="st7 st8">0</text>
	<text transform="matrix(0.9756 0 0 1 2804.1296 -2026.848)" class="st7 st8">1</text>
	<text transform="matrix(0.9756 0 0 1 2806.1296 -1914.848)" class="st7 st8">1</text>
	<text transform="matrix(0.9756 0 0 1 3117.1296 -2266.8481)" class="st7 st8">0</text>
	<text transform="matrix(0.9756 0 0 1 3119.1296 -2148.8481)" class="st7 st8">1</text>
	<text transform="matrix(0.9756 0 0 1 3121.1296 -2026.848)" class="st7 st8">0</text>
	<text transform="matrix(0.9756 0 0 1 3119.1296 -1914.848)" class="st7 st8">1</text>
	<text transform="matrix(0.9756 0 0 1 3431.1296 -2266.8481)" class="st7 st8">0</text>
	<text transform="matrix(0.9756 0 0 1 3433.1296 -2148.8481)" class="st7 st8">0</text>
	<text transform="matrix(0.9756 0 0 1 3433.1296 -2035.848)" class="st7 st8">0</text>
	<text transform="matrix(0.9756 0 0 1 3435.1296 -1914.848)" class="st7 st8">1</text>
	<g>
		<g id="XMLID_00000043436093693545887910000017242013636919794359_">
			<g>
				<polygon class="st2" points="7624,-1936 7624,-1765 7420.86,-1765 7217.71,-1765 7014.57,-1765 7014.57,-1936 				"/>
				<rect x="6202" y="-1936" class="st2" width="812.57" height="171"/>
			</g>
			<g>
				<polyline class="st3" points="6202,-1765 6202,-1936 7014.57,-1936 				"/>
				<polyline class="st3" points="7014.57,-910 6202,-910 6202,-1765 7014.57,-1765 				"/>
				<polyline class="st3" points="7014.57,-1765 7014.57,-1936 7624,-1936 7624,-1765 				"/>
				<polygon class="st3" points="7624,-1765 7624,-1594 7624,-1423 7624,-1252 7624,-1081 7624,-910 7420.86,-910 7217.71,-910 
					7014.57,-910 7014.57,-1081 7014.57,-1252 7014.57,-1423 7014.57,-1594 7014.57,-1765 7217.71,-1765 7420.86,-1765 				"/>
				<polyline class="st3" points="7624,-1081 7420.86,-1081 7217.71,-1081 7014.57,-1081 				"/>
				<polyline class="st3" points="7624,-1252 7420.86,-1252 7217.71,-1252 7014.57,-1252 				"/>
				<polyline class="st3" points="7624,-1423 7420.86,-1423 7217.71,-1423 7014.57,-1423 				"/>
				<polyline class="st3" points="7624,-1594 7420.86,-1594 7217.71,-1594 7014.57,-1594 				"/>
				<polyline class="st3" points="7420.86,-1765 7420.86,-1594 7420.86,-1423 7420.86,-1252 7420.86,-1081 7420.86,-910 				"/>
				<polyline class="st3" points="7217.71,-1765 7217.71,-1594 7217.71,-1423 7217.71,-1252 7217.71,-1081 7217.71,-910 				"/>
			</g>
		</g>
	</g>
	<text transform="matrix(0.9756 0 0 1 7131.7412 -1806.5508)" class="st7 st8">Truth Table</text>
	<text transform="matrix(0.9756 0 0 1 6359.7412 -1805.5508)" class="st7 st8">Logic Symbol</text>
	<text transform="matrix(0.9756 0 0 1 7082.9854 -1633.5513)" class="st7 st8">A</text>
	<text transform="matrix(0.9756 0 0 1 7294.1787 -1633.5511)" class="st7 st8">B</text>
	<text transform="matrix(0.9756 0 0 1 3434.856 -2386.5513)" class="st7 st8">X</text>
	<text transform="matrix(0.9756 0 0 1 7085.5024 -1467.5511)" class="st7 st8">0</text>
	<text transform="matrix(0.9756 0 0 1 7301.5029 -1466.5511)" class="st7 st8">0</text>
	<text transform="matrix(0.9756 0 0 1 7085.5029 -1307.5511)" class="st7 st8">0</text>
	<text transform="matrix(0.9756 0 0 1 7301.5024 -1306.5511)" class="st7 st8">1</text>
	<text transform="matrix(0.9756 0 0 1 7088.5024 -1131.5513)" class="st7 st8">1</text>
	<text transform="matrix(0.9756 0 0 1 7301.5024 -1131.5513)" class="st7 st8">0</text>
	<text transform="matrix(0.9756 0 0 1 7097.5024 -960.5513)" class="st7 st8">1</text>
	<text transform="matrix(0.9756 0 0 1 7301.5024 -960.5513)" class="st7 st8">1</text>
	<text transform="matrix(0.9756 0 0 1 7497.8359 -1465.0511)" class="st7 st8">0</text>
	<text transform="matrix(0.9756 0 0 1 7497.8359 -1306.0511)" class="st7 st8">0</text>
	<text transform="matrix(0.9756 0 0 1 7497.8359 -1132.0513)" class="st7 st8">0</text>
	<text transform="matrix(0.9756 0 0 1 7497.8364 -960.0513)" class="st7 st8">1</text>
	<text transform="matrix(0.9756 0 0 1 9047.1289 -1632.848)" class="st7 st8">X</text>
	<g>
		<g id="XMLID_00000056386959829896907910000013539239265653564288_">
			<g>
				<polygon class="st2" points="9176,-1936 9176,-1765 8972.86,-1765 8769.71,-1765 8566.57,-1765 8566.57,-1936 				"/>
				<rect x="7754" y="-1936" class="st2" width="812.57" height="171"/>
			</g>
			<g>
				<polyline class="st3" points="7754,-1765 7754,-1936 8566.57,-1936 				"/>
				<polyline class="st3" points="8566.57,-910 7754,-910 7754,-1765 8566.57,-1765 				"/>
				<polyline class="st3" points="8566.57,-1765 8566.57,-1936 9176,-1936 9176,-1765 				"/>
				<polygon class="st3" points="9176,-1765 9176,-1594 9176,-1423 9176,-1252 9176,-1081 9176,-910 8972.86,-910 8769.71,-910 
					8566.57,-910 8566.57,-1081 8566.57,-1252 8566.57,-1423 8566.57,-1594 8566.57,-1765 8769.71,-1765 8972.86,-1765 				"/>
				<polyline class="st3" points="9176,-1081 8972.86,-1081 8769.71,-1081 8566.57,-1081 				"/>
				<polyline class="st3" points="9176,-1252 8972.86,-1252 8769.71,-1252 8566.57,-1252 				"/>
				<polyline class="st3" points="9176,-1423 8972.86,-1423 8769.71,-1423 8566.57,-1423 				"/>
				<polyline class="st3" points="9176,-1594 8972.86,-1594 8769.71,-1594 8566.57,-1594 				"/>
				<polyline class="st3" points="8972.86,-1765 8972.86,-1594 8972.86,-1423 8972.86,-1252 8972.86,-1081 8972.86,-910 				"/>
				<polyline class="st3" points="8769.71,-1765 8769.71,-1594 8769.71,-1423 8769.71,-1252 8769.71,-1081 8769.71,-910 				"/>
			</g>
		</g>
	</g>
	<text transform="matrix(0.9756 0 0 1 8683.7412 -1806.5508)" class="st7 st8">Truth Table</text>
	<text transform="matrix(0.9756 0 0 1 7911.7412 -1805.5508)" class="st7 st8">Logic Symbol</text>
	<text transform="matrix(0.9756 0 0 1 8634.9854 -1633.5513)" class="st7 st8">A</text>
	<text transform="matrix(0.9756 0 0 1 8846.1787 -1633.5511)" class="st7 st8">B</text>
	<text transform="matrix(0.9756 0 0 1 8637.502 -1467.5511)" class="st7 st8">0</text>
	<text transform="matrix(0.9756 0 0 1 8853.5029 -1466.5511)" class="st7 st8">0</text>
	<text transform="matrix(0.9756 0 0 1 8637.5029 -1307.5511)" class="st7 st8">0</text>
	<text transform="matrix(0.9756 0 0 1 8853.502 -1306.5511)" class="st7 st8">1</text>
	<text transform="matrix(0.9756 0 0 1 8640.502 -1131.5513)" class="st7 st8">1</text>
	<text transform="matrix(0.9756 0 0 1 8853.502 -1131.5513)" class="st7 st8">0</text>
	<text transform="matrix(0.9756 0 0 1 8649.502 -960.5513)" class="st7 st8">1</text>
	<text transform="matrix(0.9756 0 0 1 8853.502 -960.5513)" class="st7 st8">1</text>
	<text transform="matrix(0.9756 0 0 1 9049.8359 -1465.0511)" class="st7 st8">0</text>
	<text transform="matrix(0.9756 0 0 1 9049.8359 -960.0513)" class="st7 st8">1</text>
	<text transform="matrix(0.9756 0 0 1 10567.1289 -1632.848)" class="st7 st8">X</text>
	<g>
		<g id="XMLID_00000168835160700344473530000000684101458490047917_">
			<g>
				<polygon class="st2" points="10696,-1936 10696,-1765 10492.86,-1765 10289.71,-1765 10086.57,-1765 10086.57,-1936 				"/>
				<rect x="9274" y="-1936" class="st2" width="812.57" height="171"/>
			</g>
			<g>
				<polyline class="st3" points="9274,-1765 9274,-1936 10086.57,-1936 				"/>
				<polyline class="st3" points="10086.57,-910 9274,-910 9274,-1765 10086.57,-1765 				"/>
				<polyline class="st3" points="10086.57,-1765 10086.57,-1936 10696,-1936 10696,-1765 				"/>
				<polygon class="st3" points="10696,-1765 10696,-1594 10696,-1423 10696,-1252 10696,-1081 10696,-910 10492.86,-910 
					10289.71,-910 10086.57,-910 10086.57,-1081 10086.57,-1252 10086.57,-1423 10086.57,-1594 10086.57,-1765 10289.71,-1765 
					10492.86,-1765 				"/>
				<polyline class="st3" points="10696,-1081 10492.86,-1081 10289.71,-1081 10086.57,-1081 				"/>
				<polyline class="st3" points="10696,-1252 10492.86,-1252 10289.71,-1252 10086.57,-1252 				"/>
				<polyline class="st3" points="10696,-1423 10492.86,-1423 10289.71,-1423 10086.57,-1423 				"/>
				<polyline class="st3" points="10696,-1594 10492.86,-1594 10289.71,-1594 10086.57,-1594 				"/>
				<polyline class="st3" points="10492.86,-1765 10492.86,-1594 10492.86,-1423 10492.86,-1252 10492.86,-1081 10492.86,-910 				
					"/>
				<polyline class="st3" points="10289.71,-1765 10289.71,-1594 10289.71,-1423 10289.71,-1252 10289.71,-1081 10289.71,-910 				
					"/>
			</g>
		</g>
	</g>
	<text transform="matrix(0.9756 0 0 1 10203.7412 -1806.5508)" class="st7 st8">Truth Table</text>
	<text transform="matrix(0.9756 0 0 1 9431.7412 -1805.5508)" class="st7 st8">Logic Symbol</text>
	<text transform="matrix(0.9756 0 0 1 10154.9854 -1633.5513)" class="st7 st8">A</text>
	<text transform="matrix(0.9756 0 0 1 10366.1787 -1633.5511)" class="st7 st8">B</text>
	<text transform="matrix(0.9756 0 0 1 10157.502 -1467.5511)" class="st7 st8">0</text>
	<text transform="matrix(0.9756 0 0 1 10373.5029 -1466.5511)" class="st7 st8">0</text>
	<text transform="matrix(0.9756 0 0 1 10157.5029 -1307.5511)" class="st7 st8">0</text>
	<text transform="matrix(0.9756 0 0 1 10373.502 -1306.5511)" class="st7 st8">1</text>
	<text transform="matrix(0.9756 0 0 1 10160.502 -1131.5513)" class="st7 st8">1</text>
	<text transform="matrix(0.9756 0 0 1 10373.502 -1131.5513)" class="st7 st8">0</text>
	<text transform="matrix(0.9756 0 0 1 10169.502 -960.5513)" class="st7 st8">1</text>
	<text transform="matrix(0.9756 0 0 1 10373.502 -960.5513)" class="st7 st8">1</text>
	<text transform="matrix(0.9756 0 0 1 9047.1299 -500.8481)" class="st7 st8">X</text>
	<g>
		<g id="XMLID_00000143619014827319897990000016444877217248973485_">
			<g>
				<rect x="7754" y="-804" class="st2" width="812.57" height="171"/>
				<polygon class="st2" points="9176,-804 9176,-633 8972.86,-633 8769.71,-633 8566.57,-633 8566.57,-804 				"/>
			</g>
			<g>
				<polyline class="st3" points="7754,-633 7754,-804 8566.57,-804 				"/>
				<polyline class="st3" points="8566.57,222 7754,222 7754,-633 8566.57,-633 				"/>
				<polyline class="st3" points="8566.57,-633 8566.57,-804 9176,-804 9176,-633 				"/>
				<polygon class="st3" points="9176,-633 9176,-462 9176,-291 9176,-120 9176,51 9176,222 8972.86,222 8769.71,222 8566.57,222 
					8566.57,51 8566.57,-120 8566.57,-291 8566.57,-462 8566.57,-633 8769.71,-633 8972.86,-633 				"/>
				<polyline class="st3" points="9176,51 8972.86,51 8769.71,51 8566.57,51 				"/>
				<polyline class="st3" points="9176,-120 8972.86,-120 8769.71,-120 8566.57,-120 				"/>
				<polyline class="st3" points="9176,-291 8972.86,-291 8769.71,-291 8566.57,-291 				"/>
				<polyline class="st3" points="9176,-462 8972.86,-462 8769.71,-462 8566.57,-462 				"/>
				<polyline class="st3" points="8972.86,-633 8972.86,-462 8972.86,-291 8972.86,-120 8972.86,51 8972.86,222 				"/>
				<polyline class="st3" points="8769.71,-633 8769.71,-462 8769.71,-291 8769.71,-120 8769.71,51 8769.71,222 				"/>
			</g>
		</g>
	</g>
	<text transform="matrix(0.9756 0 0 1 8683.7412 -674.5508)" class="st7 st8">Truth Table</text>
	<text transform="matrix(0.9756 0 0 1 7911.7412 -673.5508)" class="st7 st8">Logic Symbol</text>
	<text transform="matrix(0.9756 0 0 1 8634.9854 -501.5513)" class="st7 st8">A</text>
	<text transform="matrix(0.9756 0 0 1 8846.1787 -501.5513)" class="st7 st8">B</text>
	<text transform="matrix(0.9756 0 0 1 8637.502 -335.5513)" class="st7 st8">0</text>
	<text transform="matrix(0.9756 0 0 1 8853.5029 -334.5513)" class="st7 st8">0</text>
	<text transform="matrix(0.9756 0 0 1 8637.5029 -175.5513)" class="st7 st8">0</text>
	<text transform="matrix(0.9756 0 0 1 8853.502 -174.5513)" class="st7 st8">1</text>
	<text transform="matrix(0.9756 0 0 1 8640.502 0.4487)" class="st7 st8">1</text>
	<text transform="matrix(0.9756 0 0 1 8853.502 0.4487)" class="st7 st8">0</text>
	<text transform="matrix(0.9756 0 0 1 8649.502 171.4487)" class="st7 st8">1</text>
	<text transform="matrix(0.9756 0 0 1 8853.502 171.4487)" class="st7 st8">1</text>
	<text transform="matrix(0.9756 0 0 1 9049.8359 -333.0513)" class="st7 st8">0</text>
	<text transform="matrix(0.9756 0 0 1 9049.8359 -174.0513)" class="st7 st8">0</text>
	<text transform="matrix(0.9756 0 0 1 9049.8359 -0.0513)" class="st7 st8">0</text>
	<text transform="matrix(0.9756 0 0 1 9049.8359 171.9487)" class="st7 st8">1</text>
	<text transform="matrix(0.9756 0 0 1 7495.1299 -500.8481)" class="st7 st8">X</text>
	<g>
		<g id="XMLID_00000114038415853866572580000002868785088755361928_">
			<g>
				<polygon class="st2" points="7624,-804 7624,-633 7420.86,-633 7217.71,-633 7014.57,-633 7014.57,-804 				"/>
				<rect x="6202" y="-804" class="st2" width="812.57" height="171"/>
			</g>
			<g>
				<polyline class="st3" points="6202,-633 6202,-804 7014.57,-804 				"/>
				<polyline class="st3" points="7014.57,222 6202,222 6202,-633 7014.57,-633 				"/>
				<polyline class="st3" points="7014.57,-633 7014.57,-804 7624,-804 7624,-633 				"/>
				<polygon class="st3" points="7624,-633 7624,-462 7624,-291 7624,-120 7624,51 7624,222 7420.86,222 7217.71,222 7014.57,222 
					7014.57,51 7014.57,-120 7014.57,-291 7014.57,-462 7014.57,-633 7217.71,-633 7420.86,-633 				"/>
				<polyline class="st3" points="7624,51 7420.86,51 7217.71,51 7014.57,51 				"/>
				<polyline class="st3" points="7624,-120 7420.86,-120 7217.71,-120 7014.57,-120 				"/>
				<polyline class="st3" points="7624,-291 7420.86,-291 7217.71,-291 7014.57,-291 				"/>
				<polyline class="st3" points="7624,-462 7420.86,-462 7217.71,-462 7014.57,-462 				"/>
				<polyline class="st3" points="7420.86,-633 7420.86,-462 7420.86,-291 7420.86,-120 7420.86,51 7420.86,222 				"/>
				<polyline class="st3" points="7217.71,-633 7217.71,-462 7217.71,-291 7217.71,-120 7217.71,51 7217.71,222 				"/>
			</g>
		</g>
	</g>
	<text transform="matrix(0.9756 0 0 1 7131.7412 -674.5508)" class="st7 st8">Truth Table</text>
	<text transform="matrix(0.9756 0 0 1 6359.7412 -673.5508)" class="st7 st8">Logic Symbol</text>
	<text transform="matrix(0.9756 0 0 1 7082.9854 -501.5513)" class="st7 st8">A</text>
	<text transform="matrix(0.9756 0 0 1 7294.1787 -501.5513)" class="st7 st8">B</text>
	<text transform="matrix(0.9756 0 0 1 7085.5024 -335.5513)" class="st7 st8">0</text>
	<text transform="matrix(0.9756 0 0 1 7301.5029 -334.5513)" class="st7 st8">0</text>
	<text transform="matrix(0.9756 0 0 1 7085.5029 -175.5513)" class="st7 st8">0</text>
	<text transform="matrix(0.9756 0 0 1 7301.5024 -174.5513)" class="st7 st8">1</text>
	<text transform="matrix(0.9756 0 0 1 7088.5024 0.4487)" class="st7 st8">1</text>
	<text transform="matrix(0.9756 0 0 1 7301.5024 0.4487)" class="st7 st8">0</text>
	<text transform="matrix(0.9756 0 0 1 7097.5024 171.4487)" class="st7 st8">1</text>
	<text transform="matrix(0.9756 0 0 1 7301.5024 171.4487)" class="st7 st8">1</text>
	<text transform="matrix(0.9756 0 0 1 7497.8359 -174.0513)" class="st7 st8">0</text>
	<text transform="matrix(0.9756 0 0 1 7497.8359 -0.0513)" class="st7 st8">0</text>
	<text transform="matrix(0.9756 0 0 1 7497.8364 171.9487)" class="st7 st8">1</text>
	<path class="st3" d="M7809-3277"/>
	<text transform="matrix(0.9756 0 0 1 6269.6523 -1399.5513)" class="st7 st8">A</text>
	<text transform="matrix(0.9756 0 0 1 6269.8457 -1245.5513)" class="st7 st8">B</text>
	<text transform="matrix(0.9756 0 0 1 9053.0586 -1309.3289)" class="st7 st8">1</text>
	<text transform="matrix(0.9756 0 0 1 9049.0586 -1130.3289)" class="st7 st8">1</text>
	<path id="rect9115" class="st4" d="M7973.41-1484.91v0.65c23.14,40.15,36.51,86.52,36.51,136.16c0,49.63-13.37,96-36.51,136.13
		v0.63h141.75c101.14,0,189.44-55.09,236.8-136.76c-47.36-81.68-135.66-136.82-236.8-136.82
		C8115.16-1484.91,7973.41-1484.91,7973.41-1484.91z M8352.28-1348.1H8447 M7905-1416.51h94.72 M7905-1279.69h94.72"/>
	<text transform="matrix(0.9756 0 0 1 7818.9854 -1399.8845)" class="st7 st8">A</text>
	<text transform="matrix(0.9756 0 0 1 7821.1787 -1244.8845)" class="st7 st8">B</text>
	<text transform="matrix(0.9756 0 0 1 8399.8555 -1369.8845)" class="st7 st8">X</text>
	<text transform="matrix(0.9756 0 0 1 6864.5225 -1366.5505)" class="st7 st8">X</text>
	<text transform="matrix(0.9756 0 0 1 10566.8359 -1130.5513)" class="st7 st8">1</text>
	<text transform="matrix(0.9756 0 0 1 10566.8359 -1306.5513)" class="st7 st8">1</text>
	<text transform="matrix(0.9756 0 0 1 10566.8359 -1467.5513)" class="st7 st8">1</text>
	<text transform="matrix(0.9756 0 0 1 10566.8359 -960.5513)" class="st7 st8">0</text>
	<path id="path16055" class="st5" d="M9874.37-1347.94c0,11.89-9.64,21.53-21.53,21.53c-11.89,0-21.53-9.64-21.53-21.53
		s9.64-21.53,21.53-21.53C9864.73-1369.47,9874.37-1359.83,9874.37-1347.94z"/>
	<path id="path2183" class="st6" d="M9877.12-1347.94H9974"/>
	<path id="path10208" class="st4" d="M9687.73-1208H9483.2v-279.87l204.53-0.02c77.29,0,139.94,62.69,139.94,139.94
		S9765.03-1208,9687.73-1208z M9386.32-1417.92h96.88 M9386.32-1277.97h96.88"/>
	<text transform="matrix(0.9756 0 0 1 9313.6523 -1399.2172)" class="st7 st8">A</text>
	<text transform="matrix(0.9756 0 0 1 9315.8457 -1252.2173)" class="st7 st8">B</text>
	<text transform="matrix(0.9756 0 0 1 9935.5234 -1370.2172)" class="st7 st8">X</text>
	<path id="path10206" class="st4" d="M6417.84-356.33v0.73c23.29,44.14,36.74,95.11,36.74,149.67c0,54.57-13.45,105.55-36.74,149.66
		v0.69h142.65c101.77,0,190.62-60.56,238.28-150.35c-47.66-89.78-136.51-150.4-238.28-150.4H6417.84z M6841.44-205.92
		c0,12.77-9.53,23.14-21.18,23.14c-11.65,0-21.18-10.37-21.18-23.14s9.53-23.14,21.18-23.14
		C6831.91-229.06,6841.44-218.69,6841.44-205.92z M6841.44-205.93h95.31 M6349-281.13h95.31 M6349-130.73h95.31"/>
	<text transform="matrix(0.9756 0 0 1 6269.3188 -262.5505)" class="st7 st8">A</text>
	<text transform="matrix(0.9756 0 0 1 6269.5122 -102.5505)" class="st7 st8">B</text>
	<text transform="matrix(0.9756 0 0 1 6889.3003 -229.2173)" class="st7 st8">X</text>
	<text transform="matrix(0.9756 0 0 1 7494.9478 -333.6624)" class="st7 st8">1</text>
	<path id="path10179" class="st4" d="M8031.08-340.22v0.73c22.82,39.53,35.99,85.29,35.99,134.16c0,48.98-13.18,94.73-35.99,134.27
		v0.62h139.76c99.71,0,186.77-54.27,233.46-134.89c-46.69-80.52-133.75-134.89-233.46-134.89
		C8170.83-340.22,8031.08-340.22,8031.08-340.22z M7979.19-339.49c22.82,39.53,35.99,85.29,35.99,134.16
		c0,48.98-13.18,94.73-35.99,134.27 M8404.62-205.33H8498 M7911.75-272.78h93.38 M7911.75-137.89h93.38"/>
	<text transform="matrix(0.9756 0 0 1 7820.9854 -262.5505)" class="st7 st8">A</text>
	<text transform="matrix(0.9756 0 0 1 7823.7349 -119.5505)" class="st7 st8">B</text>
	<g>
		<g>
			<g id="XMLID_00000024718561563878950060000005318543896164391814_">
				<g>
					<polygon class="st2" points="10545.66,-799 10545.66,-542.25 10265.22,-542.25 9984.79,-542.25 9984.79,-799 					"/>
					<rect x="9423.92" y="-799" class="st2" width="560.87" height="256.75"/>
				</g>
				<g>
					<polyline class="st3" points="9423.92,-542.25 9423.92,-799 9984.79,-799 					"/>
					<polyline class="st3" points="9984.79,228 9423.92,228 9423.92,-542.25 9984.79,-542.25 					"/>
					<polyline class="st3" points="9984.79,-542.25 9984.79,-799 10545.66,-799 10545.66,-542.25 					"/>
					<polygon class="st3" points="10545.66,-542.25 10545.66,-285.5 10545.66,-28.75 10545.66,228 10265.22,228 9984.79,228 
						9984.79,-28.75 9984.79,-285.5 9984.79,-542.25 10265.22,-542.25 					"/>
					<polyline class="st3" points="10545.66,-28.75 10265.22,-28.75 9984.79,-28.75 					"/>
					<polyline class="st3" points="10545.66,-285.5 10265.22,-285.5 9984.79,-285.5 					"/>
					<polyline class="st3" points="10265.22,228 10265.22,-28.75 10265.22,-285.5 10265.22,-542.25 					"/>
				</g>
			</g>
		</g>
		<path id="path12162" class="st4" d="M9821.29-187.29c0,12.13-9.79,21.85-21.85,21.85s-21.85-9.72-21.85-21.85
			c0-12.02,9.79-21.85,21.85-21.85S9821.29-199.31,9821.29-187.29z M9564.57-67.13v-240.33l207.41,120.17L9564.57-67.13z
			 M9821.29-187.29h98.32 M9466.25-187.29h98.32"/>
	</g>
	<text transform="matrix(0.9756 0 0 1 9448.2012 -632.884)" class="st7 st8">Logic Symbol</text>
	<text transform="matrix(0.9756 0 0 1 10058.0742 -632.5508)" class="st7 st8">Truth Table</text>
	<text transform="matrix(0.9756 0 0 1 10086.3184 -356.5505)" class="st7 st8">A</text>
	<text transform="matrix(0.9756 0 0 1 10383.1895 -356.5513)" class="st7 st8">X</text>
	<text transform="matrix(0.9756 0 0 1 10088.8359 -118.5513)" class="st7 st8">0</text>
	<text transform="matrix(0.9756 0 0 1 10382.8359 135.4487)" class="st7 st8">0</text>
	<text transform="matrix(0.9756 0 0 1 10385.8359 -117.5513)" class="st7 st8">1</text>
	<text transform="matrix(0.9756 0 0 1 10088.8359 135.782)" class="st7 st8">1</text>
	<text transform="matrix(0.9756 0 0 1 9455.3184 -205.2173)" class="st7 st8">A</text>
	<text transform="matrix(0.9756 0 0 1 9870.1895 -209.218)" class="st7 st8">X</text>
	<text transform="matrix(0.9756 0 0 1 8451.1895 -229.0513)" class="st7 st8">X</text>
	<text transform="matrix(0.9756 0 0 1 1359.1296 354.1519)" class="st7 st8">X</text>
	<g>
		<g id="XMLID_00000132776537519675308640000016905339397797829036_">
			<g>
				<polygon class="st2" points="1488,51 1488,222 1284.86,222 1081.71,222 878.57,222 878.57,51 				"/>
				<rect x="66" y="51" class="st2" width="812.57" height="171"/>
			</g>
			<g>
				<polyline class="st3" points="66,222 66,51 878.57,51 				"/>
				<polyline class="st3" points="878.57,1077 66,1077 66,222 878.57,222 				"/>
				<polyline class="st3" points="878.57,222 878.57,51 1488,51 1488,222 				"/>
				<polygon class="st3" points="1488,222 1488,393 1488,564 1488,735 1488,906 1488,1077 1284.86,1077 1081.71,1077 878.57,1077 
					878.57,906 878.57,735 878.57,564 878.57,393 878.57,222 1081.71,222 1284.86,222 				"/>
				<polyline class="st3" points="1488,906 1284.86,906 1081.71,906 878.57,906 				"/>
				<polyline class="st3" points="1488,735 1284.86,735 1081.71,735 878.57,735 				"/>
				<polyline class="st3" points="1488,564 1284.86,564 1081.71,564 878.57,564 				"/>
				<polyline class="st3" points="1488,393 1284.86,393 1081.71,393 878.57,393 				"/>
				<polyline class="st3" points="1284.86,222 1284.86,393 1284.86,564 1284.86,735 1284.86,906 1284.86,1077 				"/>
				<polyline class="st3" points="1081.71,222 1081.71,393 1081.71,564 1081.71,735 1081.71,906 1081.71,1077 				"/>
			</g>
		</g>
	</g>
	<text transform="matrix(0.9756 0 0 1 995.7412 180.4492)" class="st7 st8">Truth Table</text>
	<text transform="matrix(0.9756 0 0 1 223.7412 181.4492)" class="st7 st8">Logic Symbol</text>
	<text transform="matrix(0.9756 0 0 1 946.9856 353.4487)" class="st7 st8">A</text>
	<text transform="matrix(0.9756 0 0 1 1158.179 353.4487)" class="st7 st8">B</text>
	<text transform="matrix(0.9756 0 0 1 949.5024 519.4487)" class="st7 st8">0</text>
	<text transform="matrix(0.9756 0 0 1 1165.5032 520.4487)" class="st7 st8">0</text>
	<text transform="matrix(0.9756 0 0 1 949.5029 679.4487)" class="st7 st8">0</text>
	<text transform="matrix(0.9756 0 0 1 1165.5024 680.4487)" class="st7 st8">1</text>
	<text transform="matrix(0.9756 0 0 1 952.5024 855.4487)" class="st7 st8">1</text>
	<text transform="matrix(0.9756 0 0 1 1165.5024 855.4487)" class="st7 st8">0</text>
	<text transform="matrix(0.9756 0 0 1 961.5024 1026.4487)" class="st7 st8">1</text>
	<text transform="matrix(0.9756 0 0 1 1165.5024 1026.4487)" class="st7 st8">1</text>
	<text transform="matrix(0.9756 0 0 1 1361.8362 521.9487)" class="st7 st8">0</text>
	<text transform="matrix(0.9756 0 0 1 1361.8362 680.9487)" class="st7 st8">0</text>
	<text transform="matrix(0.9756 0 0 1 1361.8362 854.9487)" class="st7 st8">0</text>
	<text transform="matrix(0.9756 0 0 1 1361.8364 1026.9487)" class="st7 st8">1</text>
	<text transform="matrix(0.9756 0 0 1 2911.1294 354.1519)" class="st7 st8">X</text>
	<g>
		<g id="XMLID_00000150793912848009986890000002802989912990621609_">
			<g>
				<polygon class="st2" points="3040,51 3040,222 2836.86,222 2633.71,222 2430.57,222 2430.57,51 				"/>
				<rect x="1618" y="51" class="st2" width="812.57" height="171"/>
			</g>
			<g>
				<polyline class="st3" points="1618,222 1618,51 2430.57,51 				"/>
				<polyline class="st3" points="2430.57,1077 1618,1077 1618,222 2430.57,222 				"/>
				<polyline class="st3" points="2430.57,222 2430.57,51 3040,51 3040,222 				"/>
				<polygon class="st3" points="3040,222 3040,393 3040,564 3040,735 3040,906 3040,1077 2836.86,1077 2633.71,1077 2430.57,1077 
					2430.57,906 2430.57,735 2430.57,564 2430.57,393 2430.57,222 2633.71,222 2836.86,222 				"/>
				<polyline class="st3" points="3040,906 2836.86,906 2633.71,906 2430.57,906 				"/>
				<polyline class="st3" points="3040,735 2836.86,735 2633.71,735 2430.57,735 				"/>
				<polyline class="st3" points="3040,564 2836.86,564 2633.71,564 2430.57,564 				"/>
				<polyline class="st3" points="3040,393 2836.86,393 2633.71,393 2430.57,393 				"/>
				<polyline class="st3" points="2836.86,222 2836.86,393 2836.86,564 2836.86,735 2836.86,906 2836.86,1077 				"/>
				<polyline class="st3" points="2633.71,222 2633.71,393 2633.71,564 2633.71,735 2633.71,906 2633.71,1077 				"/>
			</g>
		</g>
	</g>
	<text transform="matrix(0.9756 0 0 1 2547.7412 180.4492)" class="st7 st8">Truth Table</text>
	<text transform="matrix(0.9756 0 0 1 1775.7412 181.4492)" class="st7 st8">Logic Symbol</text>
	<text transform="matrix(0.9756 0 0 1 2498.9854 353.4487)" class="st7 st8">A</text>
	<text transform="matrix(0.9756 0 0 1 2710.1787 353.4487)" class="st7 st8">B</text>
	<text transform="matrix(0.9756 0 0 1 2501.5024 519.4487)" class="st7 st8">0</text>
	<text transform="matrix(0.9756 0 0 1 2717.5029 520.4487)" class="st7 st8">0</text>
	<text transform="matrix(0.9756 0 0 1 2501.5029 679.4487)" class="st7 st8">0</text>
	<text transform="matrix(0.9756 0 0 1 2717.5024 680.4487)" class="st7 st8">1</text>
	<text transform="matrix(0.9756 0 0 1 2504.5024 855.4487)" class="st7 st8">1</text>
	<text transform="matrix(0.9756 0 0 1 2717.5024 855.4487)" class="st7 st8">0</text>
	<text transform="matrix(0.9756 0 0 1 2513.5024 1026.4487)" class="st7 st8">1</text>
	<text transform="matrix(0.9756 0 0 1 2717.5024 1026.4487)" class="st7 st8">1</text>
	<text transform="matrix(0.9756 0 0 1 2913.8359 521.9487)" class="st7 st8">0</text>
	<text transform="matrix(0.9756 0 0 1 2913.8364 1026.9487)" class="st7 st8">1</text>
	<text transform="matrix(0.9756 0 0 1 4431.1294 354.1519)" class="st7 st8">X</text>
	<g>
		<g id="XMLID_00000011743525003011504990000013430031488049781393_">
			<g>
				<polygon class="st2" points="4560,51 4560,222 4356.86,222 4153.71,222 3950.57,222 3950.57,51 				"/>
				<rect x="3138" y="51" class="st2" width="812.57" height="171"/>
			</g>
			<g>
				<polyline class="st3" points="3138,222 3138,51 3950.57,51 				"/>
				<polyline class="st3" points="3950.57,1077 3138,1077 3138,222 3950.57,222 				"/>
				<polyline class="st3" points="3950.57,222 3950.57,51 4560,51 4560,222 				"/>
				<polygon class="st3" points="4560,222 4560,393 4560,564 4560,735 4560,906 4560,1077 4356.86,1077 4153.71,1077 3950.57,1077 
					3950.57,906 3950.57,735 3950.57,564 3950.57,393 3950.57,222 4153.71,222 4356.86,222 				"/>
				<polyline class="st3" points="4560,906 4356.86,906 4153.71,906 3950.57,906 				"/>
				<polyline class="st3" points="4560,735 4356.86,735 4153.71,735 3950.57,735 				"/>
				<polyline class="st3" points="4560,564 4356.86,564 4153.71,564 3950.57,564 				"/>
				<polyline class="st3" points="4560,393 4356.86,393 4153.71,393 3950.57,393 				"/>
				<polyline class="st3" points="4356.86,222 4356.86,393 4356.86,564 4356.86,735 4356.86,906 4356.86,1077 				"/>
				<polyline class="st3" points="4153.71,222 4153.71,393 4153.71,564 4153.71,735 4153.71,906 4153.71,1077 				"/>
			</g>
		</g>
	</g>
	<text transform="matrix(0.9756 0 0 1 4067.7412 180.4492)" class="st7 st8">Truth Table</text>
	<text transform="matrix(0.9756 0 0 1 3295.7412 181.4492)" class="st7 st8">Logic Symbol</text>
	<text transform="matrix(0.9756 0 0 1 4018.9854 353.4487)" class="st7 st8">A</text>
	<text transform="matrix(0.9756 0 0 1 4230.1787 353.4487)" class="st7 st8">B</text>
	<text transform="matrix(0.9756 0 0 1 4021.5024 519.4487)" class="st7 st8">0</text>
	<text transform="matrix(0.9756 0 0 1 4237.5029 520.4487)" class="st7 st8">0</text>
	<text transform="matrix(0.9756 0 0 1 4021.5029 679.4487)" class="st7 st8">0</text>
	<text transform="matrix(0.9756 0 0 1 4237.5024 680.4487)" class="st7 st8">1</text>
	<text transform="matrix(0.9756 0 0 1 4024.5024 855.4487)" class="st7 st8">1</text>
	<text transform="matrix(0.9756 0 0 1 4237.5024 855.4487)" class="st7 st8">0</text>
	<text transform="matrix(0.9756 0 0 1 4033.5024 1026.4487)" class="st7 st8">1</text>
	<text transform="matrix(0.9756 0 0 1 4237.5024 1026.4487)" class="st7 st8">1</text>
	<text transform="matrix(0.9756 0 0 1 2911.1299 1486.1519)" class="st7 st8">X</text>
	<g>
		<g id="XMLID_00000114065918124958593650000015862705573282032827_">
			<g>
				<polygon class="st2" points="3040,1183 3040,1354 2836.86,1354 2633.71,1354 2430.57,1354 2430.57,1183 				"/>
				<rect x="1618" y="1183" class="st2" width="812.57" height="171"/>
			</g>
			<g>
				<polyline class="st3" points="1618,1354 1618,1183 2430.57,1183 				"/>
				<polyline class="st3" points="2430.57,2209 1618,2209 1618,1354 2430.57,1354 				"/>
				<polyline class="st3" points="2430.57,1354 2430.57,1183 3040,1183 3040,1354 				"/>
				<polygon class="st3" points="3040,1354 3040,1525 3040,1696 3040,1867 3040,2038 3040,2209 2836.86,2209 2633.71,2209 
					2430.57,2209 2430.57,2038 2430.57,1867 2430.57,1696 2430.57,1525 2430.57,1354 2633.71,1354 2836.86,1354 				"/>
				<polyline class="st3" points="3040,2038 2836.86,2038 2633.71,2038 2430.57,2038 				"/>
				<polyline class="st3" points="3040,1867 2836.86,1867 2633.71,1867 2430.57,1867 				"/>
				<polyline class="st3" points="3040,1696 2836.86,1696 2633.71,1696 2430.57,1696 				"/>
				<polyline class="st3" points="3040,1525 2836.86,1525 2633.71,1525 2430.57,1525 				"/>
				<polyline class="st3" points="2836.86,1354 2836.86,1525 2836.86,1696 2836.86,1867 2836.86,2038 2836.86,2209 				"/>
				<polyline class="st3" points="2633.71,1354 2633.71,1525 2633.71,1696 2633.71,1867 2633.71,2038 2633.71,2209 				"/>
			</g>
		</g>
	</g>
	<text transform="matrix(0.9756 0 0 1 2547.7412 1312.4492)" class="st7 st8">Truth Table</text>
	<text transform="matrix(0.9756 0 0 1 1775.7412 1313.4492)" class="st7 st8">Logic Symbol</text>
	<text transform="matrix(0.9756 0 0 1 2498.9854 1485.4487)" class="st7 st8">A</text>
	<text transform="matrix(0.9756 0 0 1 2710.1787 1485.4487)" class="st7 st8">B</text>
	<text transform="matrix(0.9756 0 0 1 2501.5024 1651.4487)" class="st7 st8">0</text>
	<text transform="matrix(0.9756 0 0 1 2717.5029 1652.4487)" class="st7 st8">0</text>
	<text transform="matrix(0.9756 0 0 1 2501.5029 1811.4487)" class="st7 st8">0</text>
	<text transform="matrix(0.9756 0 0 1 2717.5024 1812.4487)" class="st7 st8">1</text>
	<text transform="matrix(0.9756 0 0 1 2504.5024 1987.4487)" class="st7 st8">1</text>
	<text transform="matrix(0.9756 0 0 1 2717.5024 1987.4487)" class="st7 st8">0</text>
	<text transform="matrix(0.9756 0 0 1 2513.5024 2158.4487)" class="st7 st8">1</text>
	<text transform="matrix(0.9756 0 0 1 2717.5024 2158.4487)" class="st7 st8">1</text>
	<text transform="matrix(0.9756 0 0 1 2913.8359 1653.9487)" class="st7 st8">0</text>
	<text transform="matrix(0.9756 0 0 1 2913.8359 1812.9487)" class="st7 st8">0</text>
	<text transform="matrix(0.9756 0 0 1 2913.8359 1986.9487)" class="st7 st8">0</text>
	<text transform="matrix(0.9756 0 0 1 2913.8364 2158.9487)" class="st7 st8">1</text>
	<text transform="matrix(0.9756 0 0 1 1359.1296 1486.1519)" class="st7 st8">X</text>
	<g>
		<g id="XMLID_00000055681585301197228650000014350795167562658950_">
			<g>
				<polygon class="st2" points="1488,1183 1488,1354 1284.86,1354 1081.71,1354 878.57,1354 878.57,1183 				"/>
				<rect x="66" y="1183" class="st2" width="812.57" height="171"/>
			</g>
			<g>
				<polyline class="st3" points="66,1354 66,1183 878.57,1183 				"/>
				<polyline class="st3" points="878.57,2209 66,2209 66,1354 878.57,1354 				"/>
				<polyline class="st3" points="878.57,1354 878.57,1183 1488,1183 1488,1354 				"/>
				<polygon class="st3" points="1488,1354 1488,1525 1488,1696 1488,1867 1488,2038 1488,2209 1284.86,2209 1081.71,2209 
					878.57,2209 878.57,2038 878.57,1867 878.57,1696 878.57,1525 878.57,1354 1081.71,1354 1284.86,1354 				"/>
				<polyline class="st3" points="1488,2038 1284.86,2038 1081.71,2038 878.57,2038 				"/>
				<polyline class="st3" points="1488,1867 1284.86,1867 1081.71,1867 878.57,1867 				"/>
				<polyline class="st3" points="1488,1696 1284.86,1696 1081.71,1696 878.57,1696 				"/>
				<polyline class="st3" points="1488,1525 1284.86,1525 1081.71,1525 878.57,1525 				"/>
				<polyline class="st3" points="1284.86,1354 1284.86,1525 1284.86,1696 1284.86,1867 1284.86,2038 1284.86,2209 				"/>
				<polyline class="st3" points="1081.71,1354 1081.71,1525 1081.71,1696 1081.71,1867 1081.71,2038 1081.71,2209 				"/>
			</g>
		</g>
	</g>
	<text transform="matrix(0.9756 0 0 1 995.7412 1312.4492)" class="st7 st8">Truth Table</text>
	<text transform="matrix(0.9756 0 0 1 223.7412 1313.4492)" class="st7 st8">Logic Symbol</text>
	<text transform="matrix(0.9756 0 0 1 946.9856 1485.4487)" class="st7 st8">A</text>
	<text transform="matrix(0.9756 0 0 1 1158.179 1485.4487)" class="st7 st8">B</text>
	<text transform="matrix(0.9756 0 0 1 949.5024 1651.4487)" class="st7 st8">0</text>
	<text transform="matrix(0.9756 0 0 1 1165.5032 1652.4487)" class="st7 st8">0</text>
	<text transform="matrix(0.9756 0 0 1 949.5029 1811.4487)" class="st7 st8">0</text>
	<text transform="matrix(0.9756 0 0 1 1165.5024 1812.4487)" class="st7 st8">1</text>
	<text transform="matrix(0.9756 0 0 1 952.5024 1987.4487)" class="st7 st8">1</text>
	<text transform="matrix(0.9756 0 0 1 1165.5024 1987.4487)" class="st7 st8">0</text>
	<text transform="matrix(0.9756 0 0 1 961.5024 2158.4487)" class="st7 st8">1</text>
	<text transform="matrix(0.9756 0 0 1 1165.5024 2158.4487)" class="st7 st8">1</text>
	<text transform="matrix(0.9756 0 0 1 1361.8362 1812.9487)" class="st7 st8">0</text>
	<text transform="matrix(0.9756 0 0 1 1361.8362 1986.9487)" class="st7 st8">0</text>
	<text transform="matrix(0.9756 0 0 1 1361.8364 2158.9487)" class="st7 st8">1</text>
	<text transform="matrix(0.9756 0 0 1 2917.0586 677.6711)" class="st7 st8">1</text>
	<text transform="matrix(0.9756 0 0 1 2913.0586 856.6709)" class="st7 st8">1</text>
	<text transform="matrix(0.9756 0 0 1 4430.8364 856.4487)" class="st7 st8">1</text>
	<text transform="matrix(0.9756 0 0 1 4430.8364 680.4487)" class="st7 st8">1</text>
	<text transform="matrix(0.9756 0 0 1 4430.8364 519.4487)" class="st7 st8">1</text>
	<text transform="matrix(0.9756 0 0 1 4430.8364 1026.4487)" class="st7 st8">0</text>
	<text transform="matrix(0.9756 0 0 1 1358.9478 1653.3379)" class="st7 st8">1</text>
	<g>
		<g>
			<g id="XMLID_00000079447945725632765610000017676225217131176894_">
				<g>
					<polygon class="st2" points="4409.66,1188 4409.66,1444.75 4129.23,1444.75 3848.79,1444.75 3848.79,1188 					"/>
					<rect x="3287.92" y="1188" class="st2" width="560.87" height="256.75"/>
				</g>
				<g>
					<polyline class="st3" points="3287.92,1444.75 3287.92,1188 3848.79,1188 					"/>
					<polyline class="st3" points="3848.79,2215 3287.92,2215 3287.92,1444.75 3848.79,1444.75 					"/>
					<polyline class="st3" points="3848.79,1444.75 3848.79,1188 4409.66,1188 4409.66,1444.75 					"/>
					<polygon class="st3" points="4409.66,1444.75 4409.66,1701.5 4409.66,1958.25 4409.66,2215 4129.23,2215 3848.79,2215 
						3848.79,1958.25 3848.79,1701.5 3848.79,1444.75 4129.23,1444.75 					"/>
					<polyline class="st3" points="4409.66,1958.25 4129.23,1958.25 3848.79,1958.25 					"/>
					<polyline class="st3" points="4409.66,1701.5 4129.23,1701.5 3848.79,1701.5 					"/>
					<polyline class="st3" points="4129.23,2215 4129.23,1958.25 4129.23,1701.5 4129.23,1444.75 					"/>
				</g>
			</g>
		</g>
	</g>
	<text transform="matrix(0.9756 0 0 1 3312.2007 1354.1162)" class="st7 st8">Logic Symbol</text>
	<text transform="matrix(0.9756 0 0 1 3922.0747 1354.4492)" class="st7 st8">Truth Table</text>
	<text transform="matrix(0.9756 0 0 1 3950.3188 1630.4492)" class="st7 st8">A</text>
	<text transform="matrix(0.9756 0 0 1 4247.189 1630.4487)" class="st7 st8">X</text>
	<text transform="matrix(0.9756 0 0 1 3952.8364 1868.4487)" class="st7 st8">0</text>
	<text transform="matrix(0.9756 0 0 1 4246.8364 2122.4487)" class="st7 st8">0</text>
	<text transform="matrix(0.9756 0 0 1 4249.8364 1869.4487)" class="st7 st8">1</text>
	<text transform="matrix(0.9756 0 0 1 3952.8364 2122.7822)" class="st7 st8">1</text>
</g>
<g id="AND_Gate">
	<path id="path6087" class="st4" d="M6664.25-1201.23h-214.6v-293.64l214.6-0.02c81.05,0,146.83,65.78,146.83,146.83
		C6811.08-1267.01,6745.3-1201.23,6664.25-1201.23z M6811.08-1348.06h102.28 M6348-1421.47h101.65 M6348-1274.64h101.65"/>
</g>
</svg>
