<?xml version="1.0" encoding="utf-8"?>
<!-- Generator: Adobe Illustrator 26.0.1, SVG Export Plug-In . SVG Version: 6.00 Build 0)  -->
<svg version="1.1" xmlns="http://www.w3.org/2000/svg" xmlns:xlink="http://www.w3.org/1999/xlink" x="0px" y="0px"
	 viewBox="0 0 4586 2293" style="enable-background:new 0 0 4586 2293;" xml:space="preserve">
<style type="text/css">
	.st0{fill:#8BFFB8;}
	.st1{fill:none;stroke:#000000;stroke-width:4;stroke-miterlimit:10;}
	.st2{font-family:'MyriadPro-Regular';}
	.st3{font-size:93.5233px;}
	.st4{fill:#6AF4FF;}
	.st5{fill:none;stroke:#000000;stroke-width:10;stroke-miterlimit:10;}
	.st6{fill:none;stroke:#000000;stroke-width:10;stroke-linecap:square;}
	.st7{fill:none;stroke:#000000;stroke-width:10;stroke-linecap:square;stroke-miterlimit:1.8102;}
	.st8{fill:none;stroke:#000000;stroke-width:10;}
</style>
<g id="Layer_1">
	<text transform="matrix(0.9756 0 0 1 1346.1296 360.152)" class="st2 st3">X</text>
	<g>
		<g id="XMLID_00000043436093693545887910000017242013636919794359_">
			<g>
				<polygon class="st4" points="1475,57 1475,228 1271.86,228 1068.71,228 865.57,228 865.57,57 				"/>
				<rect x="53" y="57" class="st4" width="812.57" height="171"/>
			</g>
			<g>
				<polyline class="st5" points="53,228 53,57 865.57,57 				"/>
				<polyline class="st5" points="865.57,1083 53,1083 53,228 865.57,228 				"/>
				<polyline class="st5" points="865.57,228 865.57,57 1475,57 1475,228 				"/>
				<polygon class="st5" points="1475,228 1475,399 1475,570 1475,741 1475,912 1475,1083 1271.86,1083 1068.71,1083 865.57,1083 
					865.57,912 865.57,741 865.57,570 865.57,399 865.57,228 1068.71,228 1271.86,228 				"/>
				<polyline class="st5" points="1475,912 1271.86,912 1068.71,912 865.57,912 				"/>
				<polyline class="st5" points="1475,741 1271.86,741 1068.71,741 865.57,741 				"/>
				<polyline class="st5" points="1475,570 1271.86,570 1068.71,570 865.57,570 				"/>
				<polyline class="st5" points="1475,399 1271.86,399 1068.71,399 865.57,399 				"/>
				<polyline class="st5" points="1271.86,228 1271.86,399 1271.86,570 1271.86,741 1271.86,912 1271.86,1083 				"/>
				<polyline class="st5" points="1068.71,228 1068.71,399 1068.71,570 1068.71,741 1068.71,912 1068.71,1083 				"/>
			</g>
		</g>
	</g>
	<text transform="matrix(0.9756 0 0 1 982.7412 186.4492)" class="st2 st3">Truth Table</text>
	<text transform="matrix(0.9756 0 0 1 210.7412 187.4492)" class="st2 st3">Logic Symbol</text>
	<text transform="matrix(0.9756 0 0 1 933.9856 359.4487)" class="st2 st3">A</text>
	<text transform="matrix(0.9756 0 0 1 1145.179 359.4489)" class="st2 st3">B</text>
	<text transform="matrix(0.9756 0 0 1 936.5024 525.4489)" class="st2 st3">0</text>
	<text transform="matrix(0.9756 0 0 1 1152.5032 526.4489)" class="st2 st3">0</text>
	<text transform="matrix(0.9756 0 0 1 936.5029 685.4489)" class="st2 st3">0</text>
	<text transform="matrix(0.9756 0 0 1 1152.5024 686.4489)" class="st2 st3">1</text>
	<text transform="matrix(0.9756 0 0 1 939.5024 861.4487)" class="st2 st3">1</text>
	<text transform="matrix(0.9756 0 0 1 1152.5024 861.4487)" class="st2 st3">0</text>
	<text transform="matrix(0.9756 0 0 1 948.5024 1032.4487)" class="st2 st3">1</text>
	<text transform="matrix(0.9756 0 0 1 1152.5024 1032.4487)" class="st2 st3">1</text>
	<text transform="matrix(0.9756 0 0 1 1348.8362 527.9489)" class="st2 st3">0</text>
	<text transform="matrix(0.9756 0 0 1 1348.8362 686.9489)" class="st2 st3">0</text>
	<text transform="matrix(0.9756 0 0 1 1348.8362 860.9487)" class="st2 st3">0</text>
	<text transform="matrix(0.9756 0 0 1 1348.8364 1032.9487)" class="st2 st3">1</text>
	<text transform="matrix(0.9756 0 0 1 2898.1294 360.152)" class="st2 st3">X</text>
	<g>
		<g id="XMLID_00000056386959829896907910000013539239265653564288_">
			<g>
				<polygon class="st4" points="3027,57 3027,228 2823.86,228 2620.71,228 2417.57,228 2417.57,57 				"/>
				<rect x="1605" y="57" class="st4" width="812.57" height="171"/>
			</g>
			<g>
				<polyline class="st5" points="1605,228 1605,57 2417.57,57 				"/>
				<polyline class="st5" points="2417.57,1083 1605,1083 1605,228 2417.57,228 				"/>
				<polyline class="st5" points="2417.57,228 2417.57,57 3027,57 3027,228 				"/>
				<polygon class="st5" points="3027,228 3027,399 3027,570 3027,741 3027,912 3027,1083 2823.86,1083 2620.71,1083 2417.57,1083 
					2417.57,912 2417.57,741 2417.57,570 2417.57,399 2417.57,228 2620.71,228 2823.86,228 				"/>
				<polyline class="st5" points="3027,912 2823.86,912 2620.71,912 2417.57,912 				"/>
				<polyline class="st5" points="3027,741 2823.86,741 2620.71,741 2417.57,741 				"/>
				<polyline class="st5" points="3027,570 2823.86,570 2620.71,570 2417.57,570 				"/>
				<polyline class="st5" points="3027,399 2823.86,399 2620.71,399 2417.57,399 				"/>
				<polyline class="st5" points="2823.86,228 2823.86,399 2823.86,570 2823.86,741 2823.86,912 2823.86,1083 				"/>
				<polyline class="st5" points="2620.71,228 2620.71,399 2620.71,570 2620.71,741 2620.71,912 2620.71,1083 				"/>
			</g>
		</g>
	</g>
	<text transform="matrix(0.9756 0 0 1 2534.7412 186.4492)" class="st2 st3">Truth Table</text>
	<text transform="matrix(0.9756 0 0 1 1762.7412 187.4492)" class="st2 st3">Logic Symbol</text>
	<text transform="matrix(0.9756 0 0 1 2485.9854 359.4487)" class="st2 st3">A</text>
	<text transform="matrix(0.9756 0 0 1 2697.1787 359.4489)" class="st2 st3">B</text>
	<text transform="matrix(0.9756 0 0 1 2488.5024 525.4489)" class="st2 st3">0</text>
	<text transform="matrix(0.9756 0 0 1 2704.5029 526.4489)" class="st2 st3">0</text>
	<text transform="matrix(0.9756 0 0 1 2488.5029 685.4489)" class="st2 st3">0</text>
	<text transform="matrix(0.9756 0 0 1 2704.5024 686.4489)" class="st2 st3">1</text>
	<text transform="matrix(0.9756 0 0 1 2491.5024 861.4487)" class="st2 st3">1</text>
	<text transform="matrix(0.9756 0 0 1 2704.5024 861.4487)" class="st2 st3">0</text>
	<text transform="matrix(0.9756 0 0 1 2500.5024 1032.4487)" class="st2 st3">1</text>
	<text transform="matrix(0.9756 0 0 1 2704.5024 1032.4487)" class="st2 st3">1</text>
	<text transform="matrix(0.9756 0 0 1 2900.8359 527.9489)" class="st2 st3">0</text>
	<text transform="matrix(0.9756 0 0 1 2900.8364 1032.9487)" class="st2 st3">1</text>
	<text transform="matrix(0.9756 0 0 1 4418.1294 360.152)" class="st2 st3">X</text>
	<g>
		<g id="XMLID_00000168835160700344473530000000684101458490047917_">
			<g>
				<polygon class="st4" points="4547,57 4547,228 4343.86,228 4140.71,228 3937.57,228 3937.57,57 				"/>
				<rect x="3125" y="57" class="st4" width="812.57" height="171"/>
			</g>
			<g>
				<polyline class="st5" points="3125,228 3125,57 3937.57,57 				"/>
				<polyline class="st5" points="3937.57,1083 3125,1083 3125,228 3937.57,228 				"/>
				<polyline class="st5" points="3937.57,228 3937.57,57 4547,57 4547,228 				"/>
				<polygon class="st5" points="4547,228 4547,399 4547,570 4547,741 4547,912 4547,1083 4343.86,1083 4140.71,1083 3937.57,1083 
					3937.57,912 3937.57,741 3937.57,570 3937.57,399 3937.57,228 4140.71,228 4343.86,228 				"/>
				<polyline class="st5" points="4547,912 4343.86,912 4140.71,912 3937.57,912 				"/>
				<polyline class="st5" points="4547,741 4343.86,741 4140.71,741 3937.57,741 				"/>
				<polyline class="st5" points="4547,570 4343.86,570 4140.71,570 3937.57,570 				"/>
				<polyline class="st5" points="4547,399 4343.86,399 4140.71,399 3937.57,399 				"/>
				<polyline class="st5" points="4343.86,228 4343.86,399 4343.86,570 4343.86,741 4343.86,912 4343.86,1083 				"/>
				<polyline class="st5" points="4140.71,228 4140.71,399 4140.71,570 4140.71,741 4140.71,912 4140.71,1083 				"/>
			</g>
		</g>
	</g>
	<text transform="matrix(0.9756 0 0 1 4054.7412 186.4492)" class="st2 st3">Truth Table</text>
	<text transform="matrix(0.9756 0 0 1 3282.7412 187.4492)" class="st2 st3">Logic Symbol</text>
	<text transform="matrix(0.9756 0 0 1 4005.9854 359.4487)" class="st2 st3">A</text>
	<text transform="matrix(0.9756 0 0 1 4217.1787 359.4489)" class="st2 st3">B</text>
	<text transform="matrix(0.9756 0 0 1 4008.5024 525.4489)" class="st2 st3">0</text>
	<text transform="matrix(0.9756 0 0 1 4224.5029 526.4489)" class="st2 st3">0</text>
	<text transform="matrix(0.9756 0 0 1 4008.5029 685.4489)" class="st2 st3">0</text>
	<text transform="matrix(0.9756 0 0 1 4224.5024 686.4489)" class="st2 st3">1</text>
	<text transform="matrix(0.9756 0 0 1 4011.5024 861.4487)" class="st2 st3">1</text>
	<text transform="matrix(0.9756 0 0 1 4224.5024 861.4487)" class="st2 st3">0</text>
	<text transform="matrix(0.9756 0 0 1 4020.5024 1032.4487)" class="st2 st3">1</text>
	<text transform="matrix(0.9756 0 0 1 4224.5024 1032.4487)" class="st2 st3">1</text>
	<text transform="matrix(0.9756 0 0 1 2898.1299 1492.1519)" class="st2 st3">X</text>
	<g>
		<g id="XMLID_00000143619014827319897990000016444877217248973485_">
			<g>
				<rect x="1605" y="1189" class="st4" width="812.57" height="171"/>
				<polygon class="st4" points="3027,1189 3027,1360 2823.86,1360 2620.71,1360 2417.57,1360 2417.57,1189 				"/>
			</g>
			<g>
				<polyline class="st5" points="1605,1360 1605,1189 2417.57,1189 				"/>
				<polyline class="st5" points="2417.57,2215 1605,2215 1605,1360 2417.57,1360 				"/>
				<polyline class="st5" points="2417.57,1360 2417.57,1189 3027,1189 3027,1360 				"/>
				<polygon class="st5" points="3027,1360 3027,1531 3027,1702 3027,1873 3027,2044 3027,2215 2823.86,2215 2620.71,2215 
					2417.57,2215 2417.57,2044 2417.57,1873 2417.57,1702 2417.57,1531 2417.57,1360 2620.71,1360 2823.86,1360 				"/>
				<polyline class="st5" points="3027,2044 2823.86,2044 2620.71,2044 2417.57,2044 				"/>
				<polyline class="st5" points="3027,1873 2823.86,1873 2620.71,1873 2417.57,1873 				"/>
				<polyline class="st5" points="3027,1702 2823.86,1702 2620.71,1702 2417.57,1702 				"/>
				<polyline class="st5" points="3027,1531 2823.86,1531 2620.71,1531 2417.57,1531 				"/>
				<polyline class="st5" points="2823.86,1360 2823.86,1531 2823.86,1702 2823.86,1873 2823.86,2044 2823.86,2215 				"/>
				<polyline class="st5" points="2620.71,1360 2620.71,1531 2620.71,1702 2620.71,1873 2620.71,2044 2620.71,2215 				"/>
			</g>
		</g>
	</g>
	<text transform="matrix(0.9756 0 0 1 2534.7412 1318.4492)" class="st2 st3">Truth Table</text>
	<text transform="matrix(0.9756 0 0 1 1762.7412 1319.4492)" class="st2 st3">Logic Symbol</text>
	<text transform="matrix(0.9756 0 0 1 2485.9854 1491.4487)" class="st2 st3">A</text>
	<text transform="matrix(0.9756 0 0 1 2697.1787 1491.4487)" class="st2 st3">B</text>
	<text transform="matrix(0.9756 0 0 1 2488.5024 1657.4487)" class="st2 st3">0</text>
	<text transform="matrix(0.9756 0 0 1 2704.5029 1658.4487)" class="st2 st3">0</text>
	<text transform="matrix(0.9756 0 0 1 2488.5029 1817.4487)" class="st2 st3">0</text>
	<text transform="matrix(0.9756 0 0 1 2704.5024 1818.4487)" class="st2 st3">1</text>
	<text transform="matrix(0.9756 0 0 1 2491.5024 1993.4487)" class="st2 st3">1</text>
	<text transform="matrix(0.9756 0 0 1 2704.5024 1993.4487)" class="st2 st3">0</text>
	<text transform="matrix(0.9756 0 0 1 2500.5024 2164.4487)" class="st2 st3">1</text>
	<text transform="matrix(0.9756 0 0 1 2704.5024 2164.4487)" class="st2 st3">1</text>
	<text transform="matrix(0.9756 0 0 1 2900.8359 1659.9487)" class="st2 st3">0</text>
	<text transform="matrix(0.9756 0 0 1 2900.8359 1818.9487)" class="st2 st3">0</text>
	<text transform="matrix(0.9756 0 0 1 2900.8359 1992.9487)" class="st2 st3">0</text>
	<text transform="matrix(0.9756 0 0 1 2900.8364 2164.9487)" class="st2 st3">1</text>
	<text transform="matrix(0.9756 0 0 1 1346.1296 1492.1519)" class="st2 st3">X</text>
	<g>
		<g id="XMLID_00000114038415853866572580000002868785088755361928_">
			<g>
				<polygon class="st4" points="1475,1189 1475,1360 1271.86,1360 1068.71,1360 865.57,1360 865.57,1189 				"/>
				<rect x="53" y="1189" class="st4" width="812.57" height="171"/>
			</g>
			<g>
				<polyline class="st5" points="53,1360 53,1189 865.57,1189 				"/>
				<polyline class="st5" points="865.57,2215 53,2215 53,1360 865.57,1360 				"/>
				<polyline class="st5" points="865.57,1360 865.57,1189 1475,1189 1475,1360 				"/>
				<polygon class="st5" points="1475,1360 1475,1531 1475,1702 1475,1873 1475,2044 1475,2215 1271.86,2215 1068.71,2215 
					865.57,2215 865.57,2044 865.57,1873 865.57,1702 865.57,1531 865.57,1360 1068.71,1360 1271.86,1360 				"/>
				<polyline class="st5" points="1475,2044 1271.86,2044 1068.71,2044 865.57,2044 				"/>
				<polyline class="st5" points="1475,1873 1271.86,1873 1068.71,1873 865.57,1873 				"/>
				<polyline class="st5" points="1475,1702 1271.86,1702 1068.71,1702 865.57,1702 				"/>
				<polyline class="st5" points="1475,1531 1271.86,1531 1068.71,1531 865.57,1531 				"/>
				<polyline class="st5" points="1271.86,1360 1271.86,1531 1271.86,1702 1271.86,1873 1271.86,2044 1271.86,2215 				"/>
				<polyline class="st5" points="1068.71,1360 1068.71,1531 1068.71,1702 1068.71,1873 1068.71,2044 1068.71,2215 				"/>
			</g>
		</g>
	</g>
	<text transform="matrix(0.9756 0 0 1 982.7412 1318.4492)" class="st2 st3">Truth Table</text>
	<text transform="matrix(0.9756 0 0 1 210.7412 1319.4492)" class="st2 st3">Logic Symbol</text>
	<text transform="matrix(0.9756 0 0 1 933.9856 1491.4487)" class="st2 st3">A</text>
	<text transform="matrix(0.9756 0 0 1 1145.179 1491.4487)" class="st2 st3">B</text>
	<text transform="matrix(0.9756 0 0 1 936.5024 1657.4487)" class="st2 st3">0</text>
	<text transform="matrix(0.9756 0 0 1 1152.5032 1658.4487)" class="st2 st3">0</text>
	<text transform="matrix(0.9756 0 0 1 936.5029 1817.4487)" class="st2 st3">0</text>
	<text transform="matrix(0.9756 0 0 1 1152.5024 1818.4487)" class="st2 st3">1</text>
	<text transform="matrix(0.9756 0 0 1 939.5024 1993.4487)" class="st2 st3">1</text>
	<text transform="matrix(0.9756 0 0 1 1152.5024 1993.4487)" class="st2 st3">0</text>
	<text transform="matrix(0.9756 0 0 1 948.5024 2164.4487)" class="st2 st3">1</text>
	<text transform="matrix(0.9756 0 0 1 1152.5024 2164.4487)" class="st2 st3">1</text>
	<text transform="matrix(0.9756 0 0 1 1348.8362 1818.9487)" class="st2 st3">0</text>
	<text transform="matrix(0.9756 0 0 1 1348.8362 1992.9487)" class="st2 st3">0</text>
	<text transform="matrix(0.9756 0 0 1 1348.8364 2164.9487)" class="st2 st3">1</text>
	<text transform="matrix(0.9756 0 0 1 120.6523 593.4487)" class="st2 st3">A</text>
	<text transform="matrix(0.9756 0 0 1 120.8457 747.4487)" class="st2 st3">B</text>
	<text transform="matrix(0.9756 0 0 1 2904.0586 683.6711)" class="st2 st3">1</text>
	<text transform="matrix(0.9756 0 0 1 2900.0586 862.6711)" class="st2 st3">1</text>
	<path id="rect9115" class="st6" d="M1824.41,508.09v0.65c23.14,40.15,36.51,86.52,36.51,136.16c0,49.63-13.37,96-36.51,136.13v0.63
		h141.75c101.14,0,189.44-55.09,236.8-136.76c-47.36-81.68-135.66-136.82-236.8-136.82
		C1966.16,508.09,1824.41,508.09,1824.41,508.09z M2203.28,644.9H2298 M1756,576.49h94.72 M1756,713.31h94.72"/>
	<text transform="matrix(0.9756 0 0 1 1669.9854 593.1155)" class="st2 st3">A</text>
	<text transform="matrix(0.9756 0 0 1 1672.1787 748.1155)" class="st2 st3">B</text>
	<text transform="matrix(0.9756 0 0 1 2250.856 623.1155)" class="st2 st3">X</text>
	<text transform="matrix(0.9756 0 0 1 715.5227 626.4495)" class="st2 st3">X</text>
	<text transform="matrix(0.9756 0 0 1 4417.8364 862.4487)" class="st2 st3">1</text>
	<text transform="matrix(0.9756 0 0 1 4417.8364 686.4487)" class="st2 st3">1</text>
	<text transform="matrix(0.9756 0 0 1 4417.8364 525.4487)" class="st2 st3">1</text>
	<text transform="matrix(0.9756 0 0 1 4417.8364 1032.4487)" class="st2 st3">0</text>
	<path id="path16055" class="st7" d="M3725.37,645.06c0,11.89-9.64,21.53-21.53,21.53s-21.53-9.64-21.53-21.53
		s9.64-21.53,21.53-21.53S3725.37,633.17,3725.37,645.06z"/>
	<path id="path2183" class="st8" d="M3728.12,645.06H3825"/>
	<path id="path10208" class="st6" d="M3538.73,785H3334.2V505.13l204.53-0.02c77.29,0,139.94,62.69,139.94,139.94
		S3616.03,785,3538.73,785z M3237.32,575.08h96.88 M3237.32,715.03h96.88"/>
	<text transform="matrix(0.9756 0 0 1 3164.6523 593.7828)" class="st2 st3">A</text>
	<text transform="matrix(0.9756 0 0 1 3166.8457 740.7827)" class="st2 st3">B</text>
	<text transform="matrix(0.9756 0 0 1 3786.5229 622.7828)" class="st2 st3">X</text>
	<path id="path10206" class="st6" d="M268.84,1636.67v0.73c23.29,44.14,36.74,95.11,36.74,149.67c0,54.57-13.45,105.55-36.74,149.66
		v0.69h142.65c101.77,0,190.62-60.56,238.28-150.35c-47.66-89.78-136.51-150.4-238.28-150.4H268.84z M692.44,1787.08
		c0,12.77-9.53,23.14-21.18,23.14s-21.18-10.37-21.18-23.14s9.53-23.14,21.18-23.14S692.44,1774.31,692.44,1787.08z M692.44,1787.07
		h95.31 M200,1711.87h95.31 M200,1862.27h95.31"/>
	<text transform="matrix(0.9756 0 0 1 120.3188 1730.4495)" class="st2 st3">A</text>
	<text transform="matrix(0.9756 0 0 1 120.5122 1890.4495)" class="st2 st3">B</text>
	<text transform="matrix(0.9756 0 0 1 740.3003 1763.7827)" class="st2 st3">X</text>
	<text transform="matrix(0.9756 0 0 1 1345.9478 1659.3376)" class="st2 st3">1</text>
	<path id="path10179" class="st6" d="M1882.08,1652.78v0.73c22.82,39.53,35.99,85.29,35.99,134.16c0,48.98-13.18,94.73-35.99,134.27
		v0.62h139.76c99.71,0,186.77-54.27,233.46-134.89c-46.69-80.52-133.75-134.89-233.46-134.89
		C2021.83,1652.78,1882.08,1652.78,1882.08,1652.78z M1830.19,1653.51c22.82,39.53,35.99,85.29,35.99,134.16
		c0,48.98-13.18,94.73-35.99,134.27 M2255.61,1787.67H2349 M1762.75,1720.22h93.39 M1762.75,1855.11h93.39"/>
	<text transform="matrix(0.9756 0 0 1 1671.9854 1730.4495)" class="st2 st3">A</text>
	<text transform="matrix(0.9756 0 0 1 1674.7349 1873.4495)" class="st2 st3">B</text>
	<g>
		<g>
			<g id="XMLID_00000024718561563878950060000005318543896164391814_">
				<g>
					<polygon class="st4" points="4396.66,1194 4396.66,1450.75 4116.23,1450.75 3835.79,1450.75 3835.79,1194 					"/>
					<rect x="3274.92" y="1194" class="st4" width="560.87" height="256.75"/>
				</g>
				<g>
					<polyline class="st5" points="3274.92,1450.75 3274.92,1194 3835.79,1194 					"/>
					<polyline class="st5" points="3835.79,2221 3274.92,2221 3274.92,1450.75 3835.79,1450.75 					"/>
					<polyline class="st5" points="3835.79,1450.75 3835.79,1194 4396.66,1194 4396.66,1450.75 					"/>
					<polygon class="st5" points="4396.66,1450.75 4396.66,1707.5 4396.66,1964.25 4396.66,2221 4116.23,2221 3835.79,2221 
						3835.79,1964.25 3835.79,1707.5 3835.79,1450.75 4116.23,1450.75 					"/>
					<polyline class="st5" points="4396.66,1964.25 4116.23,1964.25 3835.79,1964.25 					"/>
					<polyline class="st5" points="4396.66,1707.5 4116.23,1707.5 3835.79,1707.5 					"/>
					<polyline class="st5" points="4116.23,2221 4116.23,1964.25 4116.23,1707.5 4116.23,1450.75 					"/>
				</g>
			</g>
		</g>
		<path id="path12162" class="st6" d="M3672.29,1805.71c0,12.13-9.79,21.85-21.85,21.85c-12.06,0-21.85-9.72-21.85-21.85
			c0-12.02,9.79-21.85,21.85-21.85C3662.5,1783.86,3672.29,1793.69,3672.29,1805.71z M3415.57,1925.87v-240.33l207.41,120.17
			L3415.57,1925.87z M3672.29,1805.71h98.32 M3317.25,1805.71h98.32"/>
	</g>
	<text transform="matrix(0.9756 0 0 1 3299.2007 1360.116)" class="st2 st3">Logic Symbol</text>
	<text transform="matrix(0.9756 0 0 1 3909.0747 1360.4492)" class="st2 st3">Truth Table</text>
	<text transform="matrix(0.9756 0 0 1 3937.3188 1636.4495)" class="st2 st3">A</text>
	<text transform="matrix(0.9756 0 0 1 4234.189 1636.4487)" class="st2 st3">X</text>
	<text transform="matrix(0.9756 0 0 1 3939.8364 1874.4487)" class="st2 st3">0</text>
	<text transform="matrix(0.9756 0 0 1 4233.8364 2128.4487)" class="st2 st3">0</text>
	<text transform="matrix(0.9756 0 0 1 4236.8364 1875.4487)" class="st2 st3">1</text>
	<text transform="matrix(0.9756 0 0 1 3939.8364 2128.782)" class="st2 st3">1</text>
	<text transform="matrix(0.9756 0 0 1 3306.3188 1787.7827)" class="st2 st3">A</text>
	<text transform="matrix(0.9756 0 0 1 3721.189 1783.782)" class="st2 st3">X</text>
</g>
<g id="AND_Gate">
	<path id="path6087" class="st6" d="M515.25,791.77h-214.6V498.13l214.6-0.02c81.05,0,146.83,65.78,146.83,146.83
		S596.3,791.77,515.25,791.77z M662.08,644.94h102.28 M199,571.53h101.65 M199,718.36h101.65"/>
</g>
</svg>
