<?xml version="1.0" encoding="utf-8"?>
<!-- Generator: Adobe Illustrator 26.0.1, SVG Export Plug-In . SVG Version: 6.00 Build 0)  -->
<svg version="1.1" xmlns="http://www.w3.org/2000/svg" xmlns:xlink="http://www.w3.org/1999/xlink" x="0px" y="0px"
	 viewBox="0 0 4494 2188" style="enable-background:new 0 0 4494 2188;" xml:space="preserve">
<style type="text/css">
	.st0{fill:#8BFFB8;}
	.st1{fill:none;stroke:#000000;stroke-width:4;stroke-miterlimit:10;}
	.st2{font-family:'MyriadPro-Regular';}
	.st3{font-size:93.5233px;}
	.st4{fill:#6AF4FF;}
	.st5{fill:none;stroke:#000000;stroke-width:10;stroke-miterlimit:10;}
	.st6{fill:none;stroke:#000000;stroke-width:10;stroke-linecap:square;}
	.st7{fill:none;stroke:#000000;stroke-width:10;stroke-linecap:square;stroke-miterlimit:1.8102;}
	.st8{fill:none;stroke:#000000;stroke-width:10;}
	.st9{font-size:71.6437px;}
</style>
<g id="Layer_1">
	<text transform="matrix(0.9756 0 0 1 1293.1296 303.152)" class="st2 st3">X</text>
	<g>
		<g id="XMLID_00000043436093693545887910000017242013636919794359_">
			<g>
				<polygon class="st4" points="1422,0 1422,171 1218.86,171 1015.71,171 812.57,171 812.57,0 				"/>
				<rect class="st4" width="812.57" height="171"/>
			</g>
			<g>
				<polyline class="st5" points="0,171 0,0 812.57,0 				"/>
				<polyline class="st5" points="812.57,1026 0,1026 0,171 812.57,171 				"/>
				<polyline class="st5" points="812.57,171 812.57,0 1422,0 1422,171 				"/>
				<polygon class="st5" points="1422,171 1422,342 1422,513 1422,684 1422,855 1422,1026 1218.86,1026 1015.71,1026 812.57,1026 
					812.57,855 812.57,684 812.57,513 812.57,342 812.57,171 1015.71,171 1218.86,171 				"/>
				<polyline class="st5" points="1422,855 1218.86,855 1015.71,855 812.57,855 				"/>
				<polyline class="st5" points="1422,684 1218.86,684 1015.71,684 812.57,684 				"/>
				<polyline class="st5" points="1422,513 1218.86,513 1015.71,513 812.57,513 				"/>
				<polyline class="st5" points="1422,342 1218.86,342 1015.71,342 812.57,342 				"/>
				<polyline class="st5" points="1218.86,171 1218.86,342 1218.86,513 1218.86,684 1218.86,855 1218.86,1026 				"/>
				<polyline class="st5" points="1015.71,171 1015.71,342 1015.71,513 1015.71,684 1015.71,855 1015.71,1026 				"/>
			</g>
		</g>
	</g>
	<text transform="matrix(0.9756 0 0 1 929.7412 129.4492)" class="st2 st3">Truth Table</text>
	<text transform="matrix(0.9756 0 0 1 157.7412 130.4492)" class="st2 st3">Logic Symbol</text>
	<text transform="matrix(0.9756 0 0 1 880.9856 302.4487)" class="st2 st3">A</text>
	<text transform="matrix(0.9756 0 0 1 1092.179 302.4489)" class="st2 st3">B</text>
	<text transform="matrix(0.9756 0 0 1 883.5024 468.4489)" class="st2 st3">0</text>
	<text transform="matrix(0.9756 0 0 1 1099.5032 469.4489)" class="st2 st3">0</text>
	<text transform="matrix(0.9756 0 0 1 883.5029 628.4489)" class="st2 st3">0</text>
	<text transform="matrix(0.9756 0 0 1 1099.5024 629.4489)" class="st2 st3">1</text>
	<text transform="matrix(0.9756 0 0 1 886.5024 804.4487)" class="st2 st3">1</text>
	<text transform="matrix(0.9756 0 0 1 1099.5024 804.4487)" class="st2 st3">0</text>
	<text transform="matrix(0.9756 0 0 1 895.5024 975.4487)" class="st2 st3">1</text>
	<text transform="matrix(0.9756 0 0 1 1099.5024 975.4487)" class="st2 st3">1</text>
	<text transform="matrix(0.9756 0 0 1 1295.8362 470.9489)" class="st2 st3">0</text>
	<text transform="matrix(0.9756 0 0 1 1295.8362 629.9489)" class="st2 st3">0</text>
	<text transform="matrix(0.9756 0 0 1 1295.8362 803.9487)" class="st2 st3">0</text>
	<text transform="matrix(0.9756 0 0 1 1295.8364 975.9487)" class="st2 st3">1</text>
	<text transform="matrix(0.9756 0 0 1 2845.1294 303.152)" class="st2 st3">X</text>
	<g>
		<g id="XMLID_00000056386959829896907910000013539239265653564288_">
			<g>
				<polygon class="st4" points="2974,0 2974,171 2770.86,171 2567.71,171 2364.57,171 2364.57,0 				"/>
				<rect x="1552" class="st4" width="812.57" height="171"/>
			</g>
			<g>
				<polyline class="st5" points="1552,171 1552,0 2364.57,0 				"/>
				<polyline class="st5" points="2364.57,1026 1552,1026 1552,171 2364.57,171 				"/>
				<polyline class="st5" points="2364.57,171 2364.57,0 2974,0 2974,171 				"/>
				<polygon class="st5" points="2974,171 2974,342 2974,513 2974,684 2974,855 2974,1026 2770.86,1026 2567.71,1026 2364.57,1026 
					2364.57,855 2364.57,684 2364.57,513 2364.57,342 2364.57,171 2567.71,171 2770.86,171 				"/>
				<polyline class="st5" points="2974,855 2770.86,855 2567.71,855 2364.57,855 				"/>
				<polyline class="st5" points="2974,684 2770.86,684 2567.71,684 2364.57,684 				"/>
				<polyline class="st5" points="2974,513 2770.86,513 2567.71,513 2364.57,513 				"/>
				<polyline class="st5" points="2974,342 2770.86,342 2567.71,342 2364.57,342 				"/>
				<polyline class="st5" points="2770.86,171 2770.86,342 2770.86,513 2770.86,684 2770.86,855 2770.86,1026 				"/>
				<polyline class="st5" points="2567.71,171 2567.71,342 2567.71,513 2567.71,684 2567.71,855 2567.71,1026 				"/>
			</g>
		</g>
	</g>
	<text transform="matrix(0.9756 0 0 1 2481.7412 129.4492)" class="st2 st3">Truth Table</text>
	<text transform="matrix(0.9756 0 0 1 1709.7412 130.4492)" class="st2 st3">Logic Symbol</text>
	<text transform="matrix(0.9756 0 0 1 2432.9854 302.4487)" class="st2 st3">A</text>
	<text transform="matrix(0.9756 0 0 1 2644.1787 302.4489)" class="st2 st3">B</text>
	<text transform="matrix(0.9756 0 0 1 2435.5024 468.4489)" class="st2 st3">0</text>
	<text transform="matrix(0.9756 0 0 1 2651.5029 469.4489)" class="st2 st3">0</text>
	<text transform="matrix(0.9756 0 0 1 2435.5029 628.4489)" class="st2 st3">0</text>
	<text transform="matrix(0.9756 0 0 1 2651.5024 629.4489)" class="st2 st3">1</text>
	<text transform="matrix(0.9756 0 0 1 2438.5024 804.4487)" class="st2 st3">1</text>
	<text transform="matrix(0.9756 0 0 1 2651.5024 804.4487)" class="st2 st3">0</text>
	<text transform="matrix(0.9756 0 0 1 2447.5024 975.4487)" class="st2 st3">1</text>
	<text transform="matrix(0.9756 0 0 1 2651.5024 975.4487)" class="st2 st3">1</text>
	<text transform="matrix(0.9756 0 0 1 2847.8359 470.9489)" class="st2 st3">0</text>
	<text transform="matrix(0.9756 0 0 1 2847.8364 975.9487)" class="st2 st3">1</text>
	<text transform="matrix(0.9756 0 0 1 4365.1294 303.152)" class="st2 st3">X</text>
	<g>
		<g id="XMLID_00000168835160700344473530000000684101458490047917_">
			<g>
				<polygon class="st4" points="4494,0 4494,171 4290.86,171 4087.71,171 3884.57,171 3884.57,0 				"/>
				<rect x="3072" class="st4" width="812.57" height="171"/>
			</g>
			<g>
				<polyline class="st5" points="3072,171 3072,0 3884.57,0 				"/>
				<polyline class="st5" points="3884.57,1026 3072,1026 3072,171 3884.57,171 				"/>
				<polyline class="st5" points="3884.57,171 3884.57,0 4494,0 4494,171 				"/>
				<polygon class="st5" points="4494,171 4494,342 4494,513 4494,684 4494,855 4494,1026 4290.86,1026 4087.71,1026 3884.57,1026 
					3884.57,855 3884.57,684 3884.57,513 3884.57,342 3884.57,171 4087.71,171 4290.86,171 				"/>
				<polyline class="st5" points="4494,855 4290.86,855 4087.71,855 3884.57,855 				"/>
				<polyline class="st5" points="4494,684 4290.86,684 4087.71,684 3884.57,684 				"/>
				<polyline class="st5" points="4494,513 4290.86,513 4087.71,513 3884.57,513 				"/>
				<polyline class="st5" points="4494,342 4290.86,342 4087.71,342 3884.57,342 				"/>
				<polyline class="st5" points="4290.86,171 4290.86,342 4290.86,513 4290.86,684 4290.86,855 4290.86,1026 				"/>
				<polyline class="st5" points="4087.71,171 4087.71,342 4087.71,513 4087.71,684 4087.71,855 4087.71,1026 				"/>
			</g>
		</g>
	</g>
	<text transform="matrix(0.9756 0 0 1 4001.7412 129.4492)" class="st2 st3">Truth Table</text>
	<text transform="matrix(0.9756 0 0 1 3229.7412 130.4492)" class="st2 st3">Logic Symbol</text>
	<text transform="matrix(0.9756 0 0 1 3952.9854 302.4487)" class="st2 st3">A</text>
	<text transform="matrix(0.9756 0 0 1 4164.1787 302.4489)" class="st2 st3">B</text>
	<text transform="matrix(0.9756 0 0 1 3955.5024 468.4489)" class="st2 st3">0</text>
	<text transform="matrix(0.9756 0 0 1 4171.5029 469.4489)" class="st2 st3">0</text>
	<text transform="matrix(0.9756 0 0 1 3955.5029 628.4489)" class="st2 st3">0</text>
	<text transform="matrix(0.9756 0 0 1 4171.5024 629.4489)" class="st2 st3">1</text>
	<text transform="matrix(0.9756 0 0 1 3958.5024 804.4487)" class="st2 st3">1</text>
	<text transform="matrix(0.9756 0 0 1 4171.5024 804.4487)" class="st2 st3">0</text>
	<text transform="matrix(0.9756 0 0 1 3967.5024 975.4487)" class="st2 st3">1</text>
	<text transform="matrix(0.9756 0 0 1 4171.5024 975.4487)" class="st2 st3">1</text>
	<text transform="matrix(0.9756 0 0 1 2845.1299 1435.1519)" class="st2 st3">X</text>
	<g>
		<g id="XMLID_00000143619014827319897990000016444877217248973485_">
			<g>
				<rect x="1552" y="1132" class="st4" width="812.57" height="171"/>
				<polygon class="st4" points="2974,1132 2974,1303 2770.86,1303 2567.71,1303 2364.57,1303 2364.57,1132 				"/>
			</g>
			<g>
				<polyline class="st5" points="1552,1303 1552,1132 2364.57,1132 				"/>
				<polyline class="st5" points="2364.57,2158 1552,2158 1552,1303 2364.57,1303 				"/>
				<polyline class="st5" points="2364.57,1303 2364.57,1132 2974,1132 2974,1303 				"/>
				<polygon class="st5" points="2974,1303 2974,1474 2974,1645 2974,1816 2974,1987 2974,2158 2770.86,2158 2567.71,2158 
					2364.57,2158 2364.57,1987 2364.57,1816 2364.57,1645 2364.57,1474 2364.57,1303 2567.71,1303 2770.86,1303 				"/>
				<polyline class="st5" points="2974,1987 2770.86,1987 2567.71,1987 2364.57,1987 				"/>
				<polyline class="st5" points="2974,1816 2770.86,1816 2567.71,1816 2364.57,1816 				"/>
				<polyline class="st5" points="2974,1645 2770.86,1645 2567.71,1645 2364.57,1645 				"/>
				<polyline class="st5" points="2974,1474 2770.86,1474 2567.71,1474 2364.57,1474 				"/>
				<polyline class="st5" points="2770.86,1303 2770.86,1474 2770.86,1645 2770.86,1816 2770.86,1987 2770.86,2158 				"/>
				<polyline class="st5" points="2567.71,1303 2567.71,1474 2567.71,1645 2567.71,1816 2567.71,1987 2567.71,2158 				"/>
			</g>
		</g>
	</g>
	<text transform="matrix(0.9756 0 0 1 2481.7412 1261.4492)" class="st2 st3">Truth Table</text>
	<text transform="matrix(0.9756 0 0 1 1709.7412 1262.4492)" class="st2 st3">Logic Symbol</text>
	<text transform="matrix(0.9756 0 0 1 2432.9854 1434.4487)" class="st2 st3">A</text>
	<text transform="matrix(0.9756 0 0 1 2644.1787 1434.4487)" class="st2 st3">B</text>
	<text transform="matrix(0.9756 0 0 1 2435.5024 1600.4487)" class="st2 st3">0</text>
	<text transform="matrix(0.9756 0 0 1 2651.5029 1601.4487)" class="st2 st3">0</text>
	<text transform="matrix(0.9756 0 0 1 2435.5029 1760.4487)" class="st2 st3">0</text>
	<text transform="matrix(0.9756 0 0 1 2651.5024 1761.4487)" class="st2 st3">1</text>
	<text transform="matrix(0.9756 0 0 1 2438.5024 1936.4487)" class="st2 st3">1</text>
	<text transform="matrix(0.9756 0 0 1 2651.5024 1936.4487)" class="st2 st3">0</text>
	<text transform="matrix(0.9756 0 0 1 2447.5024 2107.4487)" class="st2 st3">1</text>
	<text transform="matrix(0.9756 0 0 1 2651.5024 2107.4487)" class="st2 st3">1</text>
	<text transform="matrix(0.9756 0 0 1 2847.8359 1602.9487)" class="st2 st3">0</text>
	<text transform="matrix(0.9756 0 0 1 2847.8359 1761.9487)" class="st2 st3">0</text>
	<text transform="matrix(0.9756 0 0 1 2847.8359 1935.9487)" class="st2 st3">0</text>
	<text transform="matrix(0.9756 0 0 1 2847.8364 2107.9487)" class="st2 st3">1</text>
	<text transform="matrix(0.9756 0 0 1 1293.1296 1435.1519)" class="st2 st3">X</text>
	<g>
		<g id="XMLID_00000114038415853866572580000002868785088755361928_">
			<g>
				<polygon class="st4" points="1422,1132 1422,1303 1218.86,1303 1015.71,1303 812.57,1303 812.57,1132 				"/>
				<rect y="1132" class="st4" width="812.57" height="171"/>
			</g>
			<g>
				<polyline class="st5" points="0,1303 0,1132 812.57,1132 				"/>
				<polyline class="st5" points="812.57,2158 0,2158 0,1303 812.57,1303 				"/>
				<polyline class="st5" points="812.57,1303 812.57,1132 1422,1132 1422,1303 				"/>
				<polygon class="st5" points="1422,1303 1422,1474 1422,1645 1422,1816 1422,1987 1422,2158 1218.86,2158 1015.71,2158 
					812.57,2158 812.57,1987 812.57,1816 812.57,1645 812.57,1474 812.57,1303 1015.71,1303 1218.86,1303 				"/>
				<polyline class="st5" points="1422,1987 1218.86,1987 1015.71,1987 812.57,1987 				"/>
				<polyline class="st5" points="1422,1816 1218.86,1816 1015.71,1816 812.57,1816 				"/>
				<polyline class="st5" points="1422,1645 1218.86,1645 1015.71,1645 812.57,1645 				"/>
				<polyline class="st5" points="1422,1474 1218.86,1474 1015.71,1474 812.57,1474 				"/>
				<polyline class="st5" points="1218.86,1303 1218.86,1474 1218.86,1645 1218.86,1816 1218.86,1987 1218.86,2158 				"/>
				<polyline class="st5" points="1015.71,1303 1015.71,1474 1015.71,1645 1015.71,1816 1015.71,1987 1015.71,2158 				"/>
			</g>
		</g>
	</g>
	<text transform="matrix(0.9756 0 0 1 929.7412 1261.4492)" class="st2 st3">Truth Table</text>
	<text transform="matrix(0.9756 0 0 1 157.7412 1262.4492)" class="st2 st3">Logic Symbol</text>
	<text transform="matrix(0.9756 0 0 1 880.9856 1434.4487)" class="st2 st3">A</text>
	<text transform="matrix(0.9756 0 0 1 1092.179 1434.4487)" class="st2 st3">B</text>
	<text transform="matrix(0.9756 0 0 1 883.5024 1600.4487)" class="st2 st3">0</text>
	<text transform="matrix(0.9756 0 0 1 1099.5032 1601.4487)" class="st2 st3">0</text>
	<text transform="matrix(0.9756 0 0 1 883.5029 1760.4487)" class="st2 st3">0</text>
	<text transform="matrix(0.9756 0 0 1 1099.5024 1761.4487)" class="st2 st3">1</text>
	<text transform="matrix(0.9756 0 0 1 886.5024 1936.4487)" class="st2 st3">1</text>
	<text transform="matrix(0.9756 0 0 1 1099.5024 1936.4487)" class="st2 st3">0</text>
	<text transform="matrix(0.9756 0 0 1 895.5024 2107.4487)" class="st2 st3">1</text>
	<text transform="matrix(0.9756 0 0 1 1099.5024 2107.4487)" class="st2 st3">1</text>
	<text transform="matrix(0.9756 0 0 1 1295.8362 1761.9487)" class="st2 st3">0</text>
	<text transform="matrix(0.9756 0 0 1 1295.8362 1935.9487)" class="st2 st3">0</text>
	<text transform="matrix(0.9756 0 0 1 1295.8364 2107.9487)" class="st2 st3">1</text>
	<text transform="matrix(0.9756 0 0 1 67.6523 536.4487)" class="st2 st3">A</text>
	<text transform="matrix(0.9756 0 0 1 67.8457 690.4487)" class="st2 st3">B</text>
	<text transform="matrix(0.9756 0 0 1 2851.0586 626.6711)" class="st2 st3">1</text>
	<text transform="matrix(0.9756 0 0 1 2847.0586 805.6711)" class="st2 st3">1</text>
	<path id="rect9115" class="st6" d="M1771.41,451.09v0.65c23.14,40.15,36.51,86.52,36.51,136.16c0,49.63-13.37,96-36.51,136.13v0.63
		h141.75c101.14,0,189.44-55.09,236.8-136.76c-47.36-81.68-135.66-136.82-236.8-136.82
		C1913.16,451.09,1771.41,451.09,1771.41,451.09z M2150.28,587.9H2245 M1703,519.49h94.72 M1703,656.31h94.72"/>
	<text transform="matrix(0.9756 0 0 1 1616.9854 536.1155)" class="st2 st3">A</text>
	<text transform="matrix(0.9756 0 0 1 1619.1787 691.1155)" class="st2 st3">B</text>
	<text transform="matrix(0.9756 0 0 1 2197.856 566.1155)" class="st2 st3">X</text>
	<text transform="matrix(0.9756 0 0 1 662.5227 569.4495)" class="st2 st3">X</text>
	<text transform="matrix(0.9756 0 0 1 4364.8364 805.4487)" class="st2 st3">1</text>
	<text transform="matrix(0.9756 0 0 1 4364.8364 629.4487)" class="st2 st3">1</text>
	<text transform="matrix(0.9756 0 0 1 4364.8364 468.4487)" class="st2 st3">1</text>
	<text transform="matrix(0.9756 0 0 1 4364.8364 975.4487)" class="st2 st3">0</text>
	<path id="path16055" class="st7" d="M3672.37,588.06c0,11.89-9.64,21.53-21.53,21.53s-21.53-9.64-21.53-21.53
		s9.64-21.53,21.53-21.53S3672.37,576.17,3672.37,588.06z"/>
	<path id="path2183" class="st8" d="M3675.12,588.06H3772"/>
	<path id="path10208" class="st6" d="M3485.73,728H3281.2V448.13l204.53-0.02c77.29,0,139.94,62.69,139.94,139.94
		S3563.03,728,3485.73,728z M3184.32,518.08h96.88 M3184.32,658.03h96.88"/>
	<text transform="matrix(0.9756 0 0 1 3111.6523 536.7828)" class="st2 st3">A</text>
	<text transform="matrix(0.9756 0 0 1 3113.8457 683.7827)" class="st2 st3">B</text>
	<text transform="matrix(0.9756 0 0 1 3733.5229 565.7828)" class="st2 st3">X</text>
	<path id="path10206" class="st6" d="M215.84,1579.67v0.73c23.29,44.14,36.74,95.11,36.74,149.67c0,54.57-13.45,105.55-36.74,149.66
		v0.69h142.65c101.77,0,190.62-60.56,238.28-150.35c-47.66-89.78-136.51-150.4-238.28-150.4H215.84z M639.44,1730.08
		c0,12.77-9.53,23.14-21.18,23.14s-21.18-10.37-21.18-23.14s9.53-23.14,21.18-23.14S639.44,1717.31,639.44,1730.08z M639.44,1730.07
		h95.31 M147,1654.87h95.31 M147,1805.27h95.31"/>
	<text transform="matrix(0.9756 0 0 1 67.3188 1673.4495)" class="st2 st3">A</text>
	<text transform="matrix(0.9756 0 0 1 67.5122 1833.4495)" class="st2 st3">B</text>
	<text transform="matrix(0.9756 0 0 1 687.3003 1706.7827)" class="st2 st3">X</text>
	<text transform="matrix(0.9756 0 0 1 1292.9478 1602.3376)" class="st2 st3">1</text>
	<path id="path10179" class="st6" d="M1829.08,1595.78v0.73c22.82,39.53,35.99,85.29,35.99,134.16c0,48.98-13.18,94.73-35.99,134.27
		v0.62h139.76c99.71,0,186.77-54.27,233.46-134.89c-46.69-80.52-133.75-134.89-233.46-134.89
		C1968.83,1595.78,1829.08,1595.78,1829.08,1595.78z M1777.19,1596.51c22.82,39.53,35.99,85.29,35.99,134.16
		c0,48.98-13.18,94.73-35.99,134.27 M2202.61,1730.67H2296 M1709.75,1663.22h93.39 M1709.75,1798.11h93.39"/>
	<text transform="matrix(0.9756 0 0 1 1618.9854 1673.4495)" class="st2 st3">A</text>
	<text transform="matrix(0.9756 0 0 1 1621.7349 1816.4495)" class="st2 st3">B</text>
	<g>
		<g>
			<g id="XMLID_00000024718561563878950060000005318543896164391814_">
				<g>
					<polygon class="st4" points="4350.03,1126 4350.03,1385.5 4066.59,1385.5 3783.15,1385.5 3783.15,1126 					"/>
					<rect x="3216.27" y="1126" class="st4" width="566.88" height="259.5"/>
				</g>
				<g>
					<polyline class="st5" points="3216.27,1385.5 3216.27,1126 3783.15,1126 					"/>
					<polyline class="st5" points="3783.15,2164 3216.27,2164 3216.27,1385.5 3783.15,1385.5 					"/>
					<polyline class="st5" points="3783.15,1385.5 3783.15,1126 4350.03,1126 4350.03,1385.5 					"/>
					<polygon class="st5" points="4350.03,1385.5 4350.03,1645 4350.03,1904.5 4350.03,2164 4066.59,2164 3783.15,2164 
						3783.15,1904.5 3783.15,1645 3783.15,1385.5 4066.59,1385.5 					"/>
					<polyline class="st5" points="4350.03,1904.5 4066.59,1904.5 3783.15,1904.5 					"/>
					<polyline class="st5" points="4350.03,1645 4066.59,1645 3783.15,1645 					"/>
					<polyline class="st5" points="4066.59,2164 4066.59,1904.5 4066.59,1645 4066.59,1385.5 					"/>
				</g>
			</g>
		</g>
		<text transform="matrix(0.9756 0 0 1 3324.4375 1303.8125)" class="st2 st9">Logic Symbol</text>
		<text transform="matrix(0.9756 0 0 1 3913.6895 1303.5576)" class="st2 st9">Truth Table</text>
		<text transform="matrix(0.9756 0 0 1 3913.7061 1550.5664)" class="st2 st9">A</text>
		<text transform="matrix(0.9756 0 0 1 4185.5557 1550.5664)" class="st2 st9">X</text>
		<text transform="matrix(0.9756 0 0 1 3915.6348 1810.2588)" class="st2 st9">0</text>
		<text transform="matrix(0.9756 0 0 1 4187.583 2059.9922)" class="st2 st9">0</text>
		<text transform="matrix(0.9756 0 0 1 4189.8809 1811.0244)" class="st2 st9">1</text>
		<text transform="matrix(0.9756 0 0 1 3913.3369 2059.9912)" class="st2 st9">1</text>
		<path id="path12162" class="st6" d="M3617.9,1744.26c0,12.26-9.89,22.08-22.08,22.08c-12.19,0-22.08-9.83-22.08-22.08
			c0-12.15,9.89-22.08,22.08-22.08C3608,1722.18,3617.9,1732.11,3617.9,1744.26z M3358.43,1865.71V1622.8l209.63,121.45
			L3358.43,1865.71z M3617.9,1744.26h99.37 M3259.05,1744.26h99.37"/>
		<text transform="matrix(0.9756 0 0 1 3239.1553 1722.248)" class="st2 st9">A</text>
		<text transform="matrix(0.9756 0 0 1 3691.8779 1722.0771)" class="st2 st9">X</text>
	</g>
</g>
<g id="AND_Gate">
	<path id="path6087" class="st6" d="M462.25,734.77h-214.6V441.13l214.6-0.02c81.05,0,146.83,65.78,146.83,146.83
		S543.3,734.77,462.25,734.77z M609.08,587.94h102.28 M146,514.53h101.65 M146,661.36h101.65"/>
</g>
</svg>
